<svg class="d-icon d-icon-error" xmlns="http://www.w3.org/2000/svg" width="24px" height="24px" viewBox="0 0 24 24"
	fill="currentcolor" stroke="none">
	<path
		d="M12,21.625c-5.316,0-9.625-4.309-9.625-9.625S6.684,2.375,12,2.375S21.625,6.684,21.625,12S17.316,21.625,12,21.625z M12,23c6.075,0,11-4.925,11-11S18.075,1,12,1S1,5.925,1,12S5.925,23,12,23z" />
	<path
		d="M12.973,12l4.125-4.125l-0.973-0.973L12,11.027L7.875,6.902L6.902,7.875L11.027,12l-4.125,4.125l0.973,0.973L12,12.973l4.125,4.125l0.974-0.973L12.973,12z" />
</svg>