<svg class="d-icon d-icon-exclamation" xmlns="http://www.w3.org/2000/svg" width="24px" height="24px" viewBox="0 0 24 24"
	fill="currentcolor" stroke="none">
	<path
		d="M12,21.625c-5.316,0-9.625-4.309-9.625-9.625S6.684,2.375,12,2.375S21.625,6.684,21.625,12S17.316,21.625,12,21.625z M12,23c6.075,0,11-4.925,11-11S18.075,1,12,1S1,5.925,1,12S5.925,23,12,23z" />
	<path
		d="M10.623,6.501l0.687,6.884h1.374l0.687-6.879L10.623,6.501z M12,14.753c0.759,0,1.375,0.616,1.375,1.375S12.759,17.503,12,17.503s-1.375-0.616-1.375-1.375S11.241,14.753,12,14.753z" />
</svg>