<svg class="d-icon d-icon-light-off" xmlns="http://www.w3.org/2000/svg" width="24px" height="24px" viewBox="0 0 24 24"
	fill="currentcolor" stroke="none">
	<path
		d="M4.06,6.969c-0.21,0.738-0.317,1.502-0.316,2.27c0,2.327,0.963,4.431,2.513,5.931c0.279,0.27,0.494,0.55,0.623,0.852l1.049,2.434c0.109,0.252,0.357,0.416,0.632,0.416c-0.38,0-0.688,0.308-0.688,0.688s0.308,0.688,0.688,0.688c-0.38,0-0.688,0.308-0.688,0.688s0.308,0.688,0.688,0.688l0.308,0.615C9.101,22.705,9.577,23,10.098,23h3.804c0.521,0,0.997-0.295,1.23-0.761l0.308-0.615c0.38,0,0.688-0.308,0.688-0.688s-0.308-0.688-0.688-0.688c0.38,0,0.688-0.308,0.688-0.688s-0.308-0.688-0.688-0.688c0.142,0,0.28-0.044,0.396-0.125l-1.252-1.251h-5.57l-0.87-2.019c-0.222-0.489-0.538-0.929-0.93-1.295C5.59,12.614,4.841,10.347,5.212,8.12L4.06,6.969L4.06,6.969z M6.245,3.318L7.22,4.291c2.733-2.64,7.089-2.564,9.729,0.169c2.575,2.666,2.575,6.894,0,9.56l0.973,0.973c3.168-3.28,3.077-8.507-0.203-11.675c-3.2-3.09-8.272-3.09-11.472,0L6.245,3.318z" />
	<path d="M2.769,3.736l0.974-0.974l17.487,17.487l-0.974,0.974L2.769,3.736z" />
</svg>