<svg class="d-icon d-icon-file" xmlns="http://www.w3.org/2000/svg" width="24px" height="24px" viewBox="0 0 24 24"
	fill="currentcolor" stroke="none">
	<path
		d="M7.705,18.836c-0.129,0.198-0.132,0.344-0.055,0.495c0.01,0.021,0.022,0.041,0.036,0.06c0.016-0.004,0.032-0.01,0.048-0.016c0.188-0.077,0.488-0.323,0.873-0.786c0.219-0.268,0.426-0.546,0.619-0.833c-0.228,0.104-0.439,0.214-0.631,0.327C8.143,18.35,7.85,18.61,7.705,18.836z M15.685,16.62c-0.245-0.044-0.528-0.067-0.841-0.074c0.185,0.203,0.385,0.391,0.598,0.564c0.33,0.261,0.561,0.348,0.685,0.352c0.033,0.004,0.066-0.003,0.095-0.021c0.057-0.045,0.102-0.104,0.129-0.17c0.049-0.084,0.078-0.178,0.082-0.275c0-0.033-0.013-0.064-0.036-0.088C16.326,16.822,16.121,16.698,15.685,16.62z M12.107,11.724c0.127-0.419,0.22-0.804,0.275-1.14v0.001c0.043-0.258,0.059-0.472,0.052-0.639C12.429,9.8,12.408,9.715,12.39,9.674c-0.069,0.009-0.136,0.027-0.199,0.055c-0.118,0.048-0.217,0.146-0.269,0.389c-0.056,0.264-0.041,0.645,0.063,1.13C12.02,11.408,12.061,11.567,12.107,11.724z M11.48,15.926c0.164-0.039,0.326-0.073,0.49-0.107c0.3-0.06,0.601-0.113,0.899-0.157c-0.25-0.383-0.484-0.777-0.701-1.18C11.952,14.969,11.723,15.451,11.48,15.926z M19.847,6.5L14.75,1.403C14.492,1.145,14.143,1,13.778,1H6.5H4.75c-0.552,0-1,0.448-1,1v1.75v16.5V22c0,0.552,0.448,1,1,1H6.5h11h1.75c0.552,0,1-0.448,1-1v-1.75V7.472C20.25,7.107,20.105,6.758,19.847,6.5z M17.273,17.731c-0.115,0.232-0.274,0.433-0.487,0.572c-0.208,0.136-0.453,0.202-0.701,0.19c-0.455-0.019-0.899-0.271-1.284-0.573c-0.413-0.326-0.839-0.78-1.251-1.306c-0.93,0.106-1.849,0.292-2.746,0.558c-0.465,0.802-0.946,1.525-1.404,2.076c-0.4,0.481-0.836,0.902-1.273,1.08c-0.231,0.096-0.513,0.144-0.798,0.041c-0.286-0.104-0.478-0.329-0.602-0.576c-0.268-0.535-0.179-1.068,0.11-1.517c0.272-0.422,0.725-0.78,1.233-1.082c0.646-0.367,1.329-0.664,2.038-0.887c0.55-0.989,1.038-2.012,1.46-3.062c-0.264-0.615-0.47-1.222-0.591-1.781c-0.118-0.55-0.164-1.094-0.063-1.562c0.103-0.485,0.377-0.925,0.895-1.132c0.263-0.106,0.549-0.165,0.826-0.106c0.283,0.06,0.524,0.245,0.656,0.502c0.113,0.23,0.173,0.483,0.175,0.74c0.01,0.258-0.016,0.544-0.066,0.844c-0.114,0.701-0.371,1.559-0.715,2.467c0.379,0.811,0.83,1.587,1.347,2.318c0.612-0.048,1.229-0.025,1.836,0.069c0.5,0.089,1.009,0.268,1.32,0.639c0.169,0.2,0.266,0.451,0.275,0.712C17.472,17.222,17.397,17.482,17.273,17.731z M15.438,7.188c-0.759,0-1.375-0.616-1.375-1.375v-2.75l4.125,4.125H15.438z" />
</svg>