<svg class="d-icon d-icon-seed-variety" xmlns="http://www.w3.org/2000/svg" width="24px" height="24px"
	viewBox="0 0 24 24" fill="currentcolor" stroke="none">
	<path
		d="M12.75,22.25h-1.5v-2.538c-1.571,0.555-4.496,1.268-6.329-0.266l-0.613-0.512l0.55-0.58c0.29-0.305,0.686-0.577,1.089-0.805c-1.431-0.682-3.359-1.891-4.136-3.697l-0.296-0.688l0.689-0.297c1.011-0.435,2.377-0.508,3.415-0.481C4.88,11.1,3.936,9.015,3.936,6.768V5.754l0.97,0.297c1.883,0.577,3.523,2.003,4.589,3.13c0.345-4.568,1.798-6.963,1.867-7.076L12,1.077l0.638,1.028c0.069,0.112,1.522,2.508,1.867,7.075c1.066-1.126,2.706-2.553,4.59-3.129l0.97-0.297v1.014c0,2.246-0.944,4.331-1.683,5.619c1.042-0.029,2.404,0.045,3.414,0.479l0.689,0.297l-0.297,0.689c-0.776,1.805-2.705,3.015-4.135,3.697c0.403,0.228,0.8,0.5,1.09,0.807l0.549,0.58l-0.613,0.512c-1.832,1.529-4.758,0.818-6.329,0.264C12.75,19.712,12.75,22.25,12.75,22.25z M6.852,18.767c1.629,0.402,3.923-0.41,4.823-0.843l0.324-0.156l0.326,0.156c0.901,0.431,3.194,1.24,4.824,0.842c-0.495-0.26-1.02-0.463-1.254-0.542l-2.214-0.745l2.234-0.684c0.034-0.01,3.069-0.957,4.455-2.788c-1.208-0.222-2.737-0.101-3.337-0.018l-1.82,0.257l1.122-1.457c0.02-0.025,1.703-2.24,2.132-4.857c-2.268,1.195-4.007,3.625-4.026,3.653l-1.362,1.923v-2.357c0-3.171-0.59-5.463-1.078-6.816c-0.488,1.353-1.078,3.645-1.078,6.816v2.35L9.56,11.586c-0.02-0.028-1.766-2.459-4.026-3.653c0.427,2.625,2.111,4.829,2.13,4.854l1.125,1.455l-1.823-0.253c-0.598-0.084-2.129-0.201-3.336,0.019c1.385,1.831,4.42,2.775,4.455,2.786l2.229,0.681l-2.208,0.748C7.778,18.334,7.294,18.532,6.852,18.767z" />
</svg>