<svg class="d-icon d-icon-seed-bloom" xmlns="http://www.w3.org/2000/svg" width="24px" height="24px" viewBox="0 0 24 24"
	fill="currentcolor" stroke="none">
	<path
		d="M13.213,23.001c-0.226,0-0.453-0.007-0.68-0.021c-2.933-0.178-5.621-1.486-7.568-3.687s-2.923-5.026-2.745-7.959c0.177-2.933,1.487-5.621,3.687-7.568c2.199-1.948,5.017-2.931,7.959-2.745c2.364,0.143,4.57,1.022,6.357,2.51l0.079-1.314L21.8,2.308l-0.225,3.691l-3.69-0.225l0.092-1.497l0.829,0.05c-1.455-1.067-3.188-1.697-5.031-1.809c-2.537-0.152-4.974,0.688-6.874,2.371c-1.899,1.682-3.03,4.003-3.184,6.536c-0.153,2.533,0.688,4.974,2.371,6.874c1.682,1.899,4.003,3.03,6.536,3.184c2.529,0.146,4.974-0.689,6.874-2.371l0.994,1.123C18.463,22.032,15.9,23.001,13.213,23.001zM13.199,19.856l-1.554-1.552c-0.267-0.266-0.493-0.569-0.675-0.905c-0.359,0.103-0.738,0.157-1.129,0.157H7.643v-2.197c0-0.392,0.055-0.771,0.158-1.13c-0.335-0.183-0.638-0.407-0.904-0.674l-1.554-1.554l1.552-1.554C7.162,10.18,7.464,9.955,7.8,9.772C7.698,9.414,7.643,9.035,7.643,8.643V6.445h2.198c0.392,0,0.771,0.055,1.129,0.158c0.183-0.335,0.408-0.638,0.674-0.904l1.555-1.554l1.555,1.552c0.267,0.267,0.491,0.57,0.674,0.905c0.359-0.103,0.738-0.158,1.13-0.158h2.197v2.198c0,0.392-0.055,0.771-0.158,1.129c0.336,0.183,0.639,0.408,0.905,0.674l1.552,1.556l-1.551,1.555c-0.268,0.267-0.57,0.492-0.906,0.675c0.103,0.358,0.157,0.737,0.157,1.129v2.197h-2.197c-0.392,0-0.771-0.055-1.13-0.158c-0.183,0.336-0.407,0.638-0.673,0.904L13.199,19.856z M12.313,16.728c0.109,0.192,0.24,0.365,0.392,0.517l0.494,0.492l0.494-0.494c0.151-0.151,0.282-0.324,0.392-0.516c-0.341-0.258-0.64-0.566-0.886-0.915C12.953,16.161,12.654,16.471,12.313,16.728zM13.949,12.751v0.698c0,1.438,1.17,2.607,2.608,2.607h0.697v-0.697c0-1.438-1.17-2.608-2.607-2.608C14.647,12.751,13.949,12.751,13.949,12.751z M9.143,16.057h0.698c1.438,0,2.608-1.17,2.608-2.607v-0.699h-0.698c-1.438,0-2.608,1.17-2.608,2.608C9.143,15.359,9.143,16.057,9.143,16.057z M17.011,12.001c0.349,0.247,0.658,0.546,0.915,0.886c0.192-0.109,0.365-0.24,0.517-0.392l0.492-0.494l-0.494-0.494c-0.151-0.151-0.324-0.282-0.516-0.392C17.668,11.456,17.359,11.755,17.011,12.001z M7.463,12.001l0.494,0.494c0.151,0.151,0.324,0.282,0.515,0.391c0.257-0.34,0.566-0.639,0.915-0.885c-0.349-0.246-0.658-0.545-0.915-0.886c-0.191,0.109-0.364,0.241-0.516,0.392L7.463,12.001zM13.949,11.251h0.698c1.438,0,2.607-1.17,2.607-2.608V7.945h-0.697c-1.438,0-2.608,1.17-2.608,2.608C13.949,10.553,13.949,11.251,13.949,11.251z M11.751,11.251h0.698v-0.698c0-1.438-1.17-2.608-2.608-2.608H9.143v0.698C9.143,10.081,10.313,11.251,11.751,11.251z M12.314,7.274c0.34,0.257,0.639,0.566,0.885,0.915c0.246-0.349,0.546-0.658,0.886-0.915c-0.109-0.192-0.24-0.365-0.392-0.517l-0.494-0.492l-0.494,0.494C12.554,6.911,12.423,7.083,12.314,7.274z" />
</svg>