<svg class="d-icon d-icon-seed-type" xmlns="http://www.w3.org/2000/svg" width="24px" height="24px" viewBox="0 0 24 24"
	fill="currentcolor" stroke="none">
	<path
		d="M12.75,22.25h-1.5v-2.831H8.777v-1.5h2.473v-2.135c-3.415-0.374-6.081-3.276-6.081-6.79c0-3.766,3.064-6.83,6.831-6.83c2.38,0,4.479,1.223,5.702,3.073L20.439,2.5h-2.486V1H23v5.047h-1.5V3.561l-3.085,3.085c0.269,0.732,0.416,1.523,0.416,2.348c0,3.514-2.666,6.416-6.081,6.79v2.135h2.472v1.5H12.75V22.25z M12,3.664c-2.939,0-5.331,2.391-5.331,5.33S9.061,14.325,12,14.325s5.331-2.392,5.331-5.331S14.939,3.664,12,3.664z" />
</svg>