<svg class="d-icon d-icon-weed" xmlns="http://www.w3.org/2000/svg" width="24px" height="24px" viewBox="0 0 24 24"
	fill="currentcolor" stroke="none">
	<path
		d="M12.258,1.043c0.366,0.109,0.619,0.356,0.849,0.65c1.802,2.303,2.595,4.911,2.336,7.821c-0.228,2.559-1.264,4.759-3.041,6.613c-0.272,0.283-0.444,0.284-0.716-0.002c-2.231-2.347-3.262-5.144-3.066-8.37c0.144-2.365,1.013-4.461,2.546-6.27c0.165-0.195,0.439-0.297,0.663-0.443C11.971,1.043,12.115,1.043,12.258,1.043z M1.043,14.578c0.096-0.504,0.438-0.789,0.869-1.015c0.765-0.402,1.565-0.696,2.413-0.866c0.234-0.047,0.376,0.057,0.504,0.235c0.883,1.228,1.979,2.226,3.318,2.929c0.623,0.327,1.299,0.551,1.947,0.833c0.123,0.054,0.263,0.133,0.328,0.242c0.12,0.198-0.005,0.411-0.268,0.51c-1.107,0.418-2.254,0.6-3.432,0.516c-2.042-0.145-3.805-0.931-5.253-2.384c-0.187-0.188-0.286-0.464-0.425-0.699C1.043,14.779,1.043,14.678,1.043,14.578z M3.659,7.243c0-0.086,0-0.172,0-0.258c0.003-0.78,0.606-1.28,1.37-1.123C5.96,6.053,6.837,6.39,7.672,6.843c0.242,0.131,0.263,0.326,0.24,0.562C7.786,8.69,7.873,9.962,8.173,11.219c0.368,1.543,1.026,2.952,1.969,4.227c0.034,0.046,0.084,0.087,0.099,0.139c0.025,0.086,0.07,0.215,0.03,0.26c-0.046,0.053-0.19,0.076-0.262,0.045c-0.564-0.242-1.15-0.45-1.674-0.761c-2.552-1.51-4.071-3.746-4.572-6.668c-0.069-0.4-0.084-0.81-0.124-1.215C3.646,7.244,3.652,7.244,3.659,7.243z M20.426,7.247c-0.045,3.855-2.644,7.413-6.314,8.629c-0.091,0.03-0.207-0.016-0.312-0.026c0.022-0.102,0.015-0.226,0.072-0.302c1.273-1.698,2.053-3.598,2.273-5.706c0.083-0.792,0.041-1.599,0.028-2.398c-0.007-0.404-0.009-0.457,0.342-0.649c0.795-0.436,1.639-0.742,2.525-0.931c0.773-0.165,1.386,0.336,1.387,1.125C20.426,7.075,20.426,7.161,20.426,7.247z M16.82,17.977c-0.983-0.001-1.934-0.177-2.855-0.519c-0.187-0.069-0.338-0.16-0.336-0.389c0.002-0.23,0.157-0.318,0.347-0.376c2.192-0.666,3.954-1.934,5.299-3.784c0.141-0.194,0.302-0.247,0.536-0.199c0.927,0.188,1.798,0.517,2.61,1.001c0.719,0.429,0.82,1.251,0.229,1.848C21.107,17.116,19.026,17.979,16.82,17.977z M16.145,21.009c-2.025-0.061-3.721-0.86-5.039-2.445c-0.041-0.049-0.082-0.1-0.118-0.153c-0.16-0.231-0.117-0.441,0.124-0.578c0.242-0.137,0.492-0.263,0.734-0.401c0.177-0.101,0.326-0.042,0.481,0.05c0.882,0.52,1.824,0.899,2.835,1.059c0.625,0.1,1.264,0.125,1.898,0.156c0.246,0.012,0.412,0.085,0.501,0.315c0.092,0.239,0.228,0.47,0.27,0.718c0.105,0.626-0.362,1.179-1.015,1.241C16.603,20.994,16.388,20.997,16.145,21.009z M7.914,21.019c-0.277-0.026-0.559-0.027-0.831-0.082c-0.592-0.121-0.962-0.718-0.804-1.303c0.068-0.252,0.176-0.5,0.309-0.724c0.06-0.101,0.228-0.197,0.345-0.195c0.944,0.015,1.869-0.091,2.777-0.349c0.192-0.055,0.341,0.009,0.468,0.17c0.283,0.359,0.575,0.71,0.871,1.059c0.221,0.26,0.181,0.494-0.127,0.66C10.051,20.725,8.952,20.999,7.914,21.019z M12.205,23.073c-0.383-0.037-0.77-0.046-1.146-0.118c-0.679-0.129-0.947-0.557-0.859-1.247c0.034-0.264,0.138-0.401,0.392-0.509c0.451-0.191,0.879-0.439,1.308-0.678c0.11-0.061,0.176-0.062,0.286-0.001c0.443,0.245,0.885,0.492,1.346,0.699c0.209,0.094,0.309,0.197,0.341,0.426c0.058,0.418-0.016,0.782-0.327,1.079c-0.193,0.185-0.427,0.284-0.695,0.291c-0.214,0.005-0.428,0.001-0.642,0.001C12.208,23.035,12.206,23.054,12.205,23.073z" />
</svg>