<svg class="d-icon d-icon-download" xmlns="http://www.w3.org/2000/svg" width="24px" height="24px" viewBox="0 0 24 24"
	fill="currentcolor" stroke="none">
	<path
		d="M12,4.438c-1.815,0.006-3.567,0.66-4.942,1.845C6.005,7.19,5.242,8.373,5.045,9.559C2.741,10.068,1,12.076,1,14.5c0,2.816,2.349,5.063,5.199,5.063h12.246c2.496,0,4.555-1.966,4.555-4.437c0-2.249-1.708-4.082-3.897-4.392C18.769,7.186,15.699,4.438,12,4.438z M16.348,13.089L12,17.438L7.652,13.09l1.137-1.137l2.408,2.411V7.469h1.606v6.894l2.408-2.411L16.348,13.089z" />
</svg>