<svg class="d-icon d-icon-question" xmlns="http://www.w3.org/2000/svg" width="24px" height="24px" viewBox="0 0 24 24"
	fill="currentcolor" stroke="none">
	<path
		d="M11.986,2c0.889,0,1.697,0.127,2.424,0.38c0.73,0.254,1.357,0.606,1.888,1.056c0.529,0.45,0.935,0.981,1.219,1.592s0.425,1.276,0.425,1.994c0,0.624-0.095,1.188-0.284,1.689c-0.189,0.501-0.425,0.974-0.709,1.418c-0.284,0.446-0.591,0.866-0.921,1.263c-0.332,0.397-0.64,0.799-0.921,1.206c-0.284,0.406-0.522,0.832-0.711,1.276c-0.189,0.446-0.284,0.933-0.284,1.461v0.738h-3.659v-0.738c0-0.718,0.171-1.39,0.51-2.014c0.342-0.623,0.716-1.239,1.122-1.843c0.406-0.605,0.78-1.225,1.12-1.858c0.342-0.634,0.51-1.319,0.51-2.057c0-0.548-0.199-1.031-0.596-1.446c-0.397-0.416-1.011-0.624-1.842-0.624c-0.607,0-1.198,0.114-1.773,0.341c-0.577,0.227-1.14,0.577-1.69,1.049L6.057,3.942c0.85-0.675,1.782-1.167,2.793-1.476S10.908,2,11.986,2z M10.086,19.731c0-0.605,0.212-1.12,0.637-1.546c0.425-0.426,0.94-0.638,1.547-0.638c0.642,0,1.182,0.212,1.616,0.638s0.653,0.941,0.653,1.546c0,0.624-0.199,1.159-0.596,1.603C13.547,21.778,13.007,22,12.326,22c-0.663,0-1.201-0.217-1.616-0.652C10.294,20.914,10.086,20.375,10.086,19.731z" />
</svg>