<svg class="d-icon d-icon-sunny" xmlns="http://www.w3.org/2000/svg" width="24px" height="24px" viewBox="0 0 24 24"
	fill="currentcolor" stroke="none">
	<path
		d="M12.75,23h-1.5v-3.865h1.5V23z M19.248,20.309l-2.733-2.733l1.061-1.061l2.733,2.733L19.248,20.309z M4.752,20.309l-1.061-1.061l2.733-2.733l1.061,1.061L4.752,20.309z M23,12.75h-3.865v-1.5H23V12.75z M4.865,12.75H1v-1.5h3.865V12.75zM17.575,7.485l-1.061-1.061l2.733-2.733l1.061,1.061L17.575,7.485z M6.425,7.485L3.691,4.752l1.061-1.061l2.733,2.733L6.425,7.485zM12.75,4.865h-1.5V1h1.5V4.865z M12,16.692c-2.587,0-4.692-2.105-4.692-4.692S9.413,7.308,12,7.308S16.692,9.413,16.692,12S14.587,16.692,12,16.692z" />
</svg>