<svg class="d-icon d-icon-information" xmlns="http://www.w3.org/2000/svg" width="24px" height="24px" viewBox="0 0 24 24"
	fill="currentcolor" stroke="none">
	<path
		d="M14.323,8.791l-5.04,0.631l-0.18,0.836l0.991,0.18c0.645,0.155,0.774,0.386,0.634,1.031l-1.625,7.629C8.678,21.071,9.337,22,10.882,22c1.2,0,2.59-0.554,3.221-1.315l0.194-0.915c-0.439,0.386-1.084,0.541-1.509,0.541c-0.605,0-0.824-0.425-0.67-1.174C12.118,19.139,14.323,8.791,14.323,8.791z M12.274,2c1.215,0,2.2,0.985,2.2,2.2s-0.985,2.2-2.2,2.2s-2.2-0.985-2.2-2.2S11.059,2,12.274,2z" />
</svg>