<svg class="d-icon d-icon-seed-harvest" xmlns="http://www.w3.org/2000/svg" width="24px" height="24px"
	viewBox="0 0 24 24" fill="currentcolor" stroke="none">
	<path
		d="M5.606,5.656l-0.384-1.06c0.251-0.207,0.42-0.509,0.42-0.859c0-0.624-0.506-1.13-1.13-1.13s-1.13,0.506-1.13,1.13s0.506,1.13,1.13,1.13c0.003,0,0.006-0.002,0.01-0.002L5.08,6.406h2.778v-0.75C7.858,5.656,5.606,5.656,5.606,5.656z M6.328,7.912v-0.75H3.55l-0.559,1.54c-0.003,0-0.006-0.002-0.01-0.002c-0.624,0-1.13,0.506-1.13,1.13c0,0.624,0.506,1.13,1.13,1.13s1.13-0.506,1.13-1.13c0-0.351-0.17-0.652-0.421-0.859l0.384-1.06h2.254V7.912z M19.487,2.607c-0.624,0-1.13,0.506-1.13,1.13c0,0.351,0.169,0.652,0.42,0.859l-0.384,1.06H16.14v0.75h2.778l0.558-1.541c0.003,0,0.006,0.002,0.01,0.002c0.624,0,1.13-0.506,1.13-1.13C20.617,3.113,20.111,2.607,19.487,2.607z M21.018,8.701c-0.003,0-0.006,0.002-0.01,0.002L20.45,7.162h-2.778v0.75h2.253l0.384,1.06c-0.251,0.207-0.421,0.508-0.421,0.859c0,0.624,0.506,1.13,1.13,1.13s1.13-0.506,1.13-1.13S21.642,8.701,21.018,8.701z" />
	<path
		d="M12,22.417h1.91l-0.019-0.966c0-0.515,0.196-1.03,0.589-1.423c0.786-0.786,2.06-0.786,2.846,0l0,0l0.704,0.704l2.719-2.719l-0.646-0.668c-0.786-0.786-0.786-2.06,0-2.846c0.393-0.393,0.908-0.589,1.423-0.589h0.89V12h-4.839c0,3.081-2.497,5.578-5.578,5.578S6.422,15.081,6.422,12H1.583v1.91h0.89c0.515,0,1.03,0.197,1.423,0.589c0.786,0.786,0.786,2.06,0,2.846L3.25,18.013l2.719,2.719l0.704-0.704l0,0c0.786-0.786,2.06-0.786,2.846,0c0.393,0.393,0.589,0.908,0.589,1.423l-0.019,0.966C10.09,22.417,12,22.417,12,22.417z" />
	<path
		d="M12,8.442c0.2,0.724,0.774,1.182,1.55,1.234c0.702,0.047,1.312-0.323,1.556-1.033c0.253-0.735,0.451-1.489,0.643-2.243c0.097-0.384-0.122-0.557-0.51-0.514c-0.416,0.046-0.654,0.211-0.862,0.613C13.88,7.457,13.048,7.943,12,7.947c-1.048-0.004-1.88-0.489-2.377-1.449C9.415,6.096,9.177,5.931,8.761,5.885c-0.388-0.043-0.607,0.131-0.51,0.514c0.191,0.754,0.39,1.509,0.643,2.243c0.244,0.71,0.854,1.079,1.556,1.033C11.226,9.624,11.8,9.166,12,8.442z M12,7.205c1.62-0.059,2.247-1.586,1.847-2.623c-0.394-1.021-0.963-1.94-1.574-2.837C12.201,1.64,12.102,1.589,12,1.576c-0.102,0.014-0.201,0.064-0.273,0.17c-0.611,0.897-1.18,1.816-1.574,2.837C9.753,5.62,10.38,7.146,12,7.205z M12,16.797c1.683,0,3.158-0.871,4.014-2.183c-0.427-0.195-0.958-0.3-1.35-0.265c-0.08,0.007-0.191-0.015-0.244-0.067c-0.577-0.564-1.265-0.903-2.075-1.034c0-0.439,0-0.878,0-1.35c0.307,0.295,0.641,0.488,1.049,0.545c0.646,0.09,1.303-0.225,1.611-0.808c0.365-0.69,0.529-1.447,0.696-2.201c0.02-0.09,0.035-0.182,0.023-0.288C15.69,9.197,15.653,9.247,15.621,9.3c-0.663,1.089-2.053,1.457-3.171,0.838c-0.303-0.168-0.337-0.153-0.428,0.195c-0.008,0.031-0.015,0.064-0.023,0.102c-0.008-0.038-0.015-0.071-0.023-0.102c-0.091-0.347-0.125-0.362-0.428-0.195C10.43,10.756,9.04,10.389,8.377,9.3C8.346,9.248,8.309,9.198,8.275,9.146C8.264,9.253,8.278,9.344,8.298,9.435c0.167,0.754,0.331,1.511,0.696,2.201c0.308,0.582,0.966,0.897,1.611,0.808c0.408-0.057,0.741-0.25,1.049-0.545c0,0.471,0,0.91,0,1.35c-0.81,0.132-1.498,0.47-2.075,1.034c-0.054,0.052-0.164,0.074-0.244,0.067c-0.391-0.035-0.923,0.07-1.35,0.265C8.842,15.926,10.317,16.797,12,16.797z" />
</svg>