<svg class="d-icon d-icon-lock" xmlns="http://www.w3.org/2000/svg" width="24px" height="24px" viewBox="0 0 24 24"
	fill="currentcolor" stroke="none">
	<path
		d="M8.34,3.186C7.03,3.547,5.73,3.94,4.439,4.363C4.198,4.441,4.023,4.649,3.988,4.9c-0.762,5.716,0.998,9.886,3.098,12.634c0.889,1.175,1.949,2.21,3.145,3.07c0.476,0.336,0.897,0.577,1.228,0.733c0.165,0.078,0.3,0.131,0.403,0.162c0.045,0.016,0.092,0.027,0.139,0.034c0.047-0.008,0.093-0.019,0.137-0.034c0.104-0.032,0.239-0.084,0.404-0.162c0.33-0.155,0.752-0.399,1.228-0.733c1.196-0.861,2.256-1.896,3.145-3.07c2.1-2.746,3.86-6.918,3.098-12.634c-0.035-0.25-0.21-0.459-0.451-0.536c-0.895-0.293-2.406-0.77-3.901-1.176C14.134,2.774,12.73,2.467,12,2.467C11.271,2.467,9.866,2.774,8.34,3.186L8.34,3.186z M7.974,1.77C9.466,1.364,11.051,1,12,1s2.534,0.364,4.026,0.77c1.526,0.413,3.065,0.901,3.97,1.196c0.772,0.255,1.33,0.929,1.436,1.735c0.819,6.156-1.082,10.718-3.389,13.736c-0.978,1.291-2.145,2.428-3.461,3.373c-0.455,0.327-0.937,0.614-1.441,0.859C12.755,22.851,12.341,23,12,23s-0.753-0.149-1.14-0.33c-0.504-0.245-0.986-0.532-1.441-0.859c-1.316-0.945-2.482-2.082-3.461-3.373c-2.307-3.018-4.209-7.58-3.389-13.736c0.106-0.806,0.664-1.48,1.435-1.735C5.318,2.536,6.641,2.137,7.974,1.77z M14.063,9.938c0,0.874-0.551,1.654-1.375,1.946l0.529,2.736c0.072,0.373-0.172,0.733-0.544,0.806c-0.043,0.008-0.087,0.013-0.131,0.013h-1.084c-0.38-0.001-0.687-0.309-0.686-0.689c0-0.043,0.004-0.087,0.013-0.129l0.528-2.736c-1.074-0.38-1.637-1.558-1.257-2.632s1.558-1.637,2.632-1.257C13.511,8.285,14.062,9.064,14.063,9.938z" />
</svg>