<svg class="d-icon d-icon-api-error" xmlns="http://www.w3.org/2000/svg" width="24px" height="24px" viewBox="0 0 24 24"
	fill="currentcolor" stroke="none">
	<path
		d="M20.499,19.246c-0.596,0-1.092,0.407-1.238,0.957h-1.355v-5.208H18.7c0.146,0.55,0.642,0.957,1.238,0.957c0.71,0,1.285-0.575,1.285-1.285c-0.001-0.711-0.576-1.286-1.286-1.286c-0.596,0-1.092,0.407-1.238,0.957h-0.793V12h1.41c1.759,0,3.185-1.422,3.185-3.177s-1.427-3.177-3.186-3.177c-0.279,0-0.545,0.047-0.803,0.114c-0.029-1.573-1.311-2.84-2.895-2.84c-0.717,0-1.364,0.269-1.87,0.699C12.79,2.335,11.261,1.5,9.533,1.5c-2.536,0-4.653,1.792-5.148,4.176C2.769,5.828,1.5,7.17,1.5,8.823C1.5,10.578,2.926,12,4.685,12h1.381v4.275H5.337c-0.146-0.55-0.642-0.957-1.238-0.957c-0.71,0-1.285,0.575-1.285,1.285c0,0.71,0.575,1.285,1.285,1.285c0.596,0,1.092-0.407,1.238-0.957h0.729v3.956H4.023c-0.146-0.55-0.642-0.957-1.238-0.957c-0.71,0-1.285,0.575-1.285,1.285c0,0.71,0.575,1.285,1.285,1.285c0.596,0,1.092-0.407,1.238-0.957h2.7c0,0,0-2.326,0-4.612h3.609V12h1.34v5.393c-1.074,0.16-1.9,1.077-1.9,2.195c0,1.231,0.998,2.229,2.229,2.229c1.231,0,2.229-0.998,2.229-2.229c-0.001-1.118-0.828-2.036-1.902-2.196V12h1.258v2.995h3.664v5.864h2.012c0.146,0.55,0.642,0.957,1.238,0.957c0.71,0,1.285-0.575,1.285-1.285C21.784,19.821,21.209,19.246,20.499,19.246zM12.889,18.39l0.309,0.309l-0.889,0.889l0.889,0.889l-0.309,0.309L12,19.897l-0.889,0.889l-0.309-0.309l0.889-0.889l-0.889-0.889l0.309-0.309L12,19.279L12.889,18.39z M9.676,16.275H6.723c0-2.135,0-3.785,0-4.275h2.953V16.275z M14.242,14.338V12h3.008v2.338H14.242z" />
</svg>