<svg class="d-icon d-icon-seed-uses" xmlns="http://www.w3.org/2000/svg" width="24px" height="24px" viewBox="0 0 24 24"
	fill="currentcolor" stroke="none">
	<path
		d="M12.026,13.113h-0.75c-0.202,0-0.366-0.164-0.366-0.366s0.164-0.366,0.366-0.366h0.75c0.202,0,0.366,0.164,0.366,0.366S12.229,13.113,12.026,13.113z M16.031,12.945v8.51c0,0.851-0.693,1.544-1.544,1.544H9.513c-0.851,0-1.544-0.693-1.544-1.544v-8.51c0-0.4,0.24-0.884,0.558-1.126l0.633-0.482c0.136-0.103,0.269-0.372,0.269-0.543v-0.259H9.067c-0.202,0-0.366-0.164-0.366-0.366V8.708c0-0.202,0.164-0.366,0.366-0.366h0.005V6.279c0-0.433,0.323-0.792,0.741-0.85c0.092-0.078,0.356-0.378,0.356-1.271V2.831C10.169,1.821,10.99,1,12,1s1.831,0.821,1.831,1.831v1.327c0,0.893,0.264,1.194,0.356,1.271c0.418,0.058,0.741,0.416,0.741,0.85v2.063h0.005c0.202,0,0.366,0.164,0.366,0.366v1.461c0,0.202-0.164,0.366-0.366,0.366h-0.361v0.259c0,0.171,0.133,0.439,0.269,0.543l0.633,0.482C15.791,12.063,16.031,12.546,16.031,12.945z M10.684,5.42h2.631c-0.124-0.292-0.218-0.698-0.218-1.262V2.831c0-0.605-0.493-1.098-1.098-1.098s-1.098,0.493-1.098,1.098v1.327C10.902,4.722,10.809,5.128,10.684,5.42z M9.805,8.342h0.733V6.886h0.733v1.456h0.362V6.886h0.733v1.456h0.362V6.886h0.733v1.456h0.733V6.279c0-0.069-0.056-0.126-0.126-0.126H9.931c-0.069,0-0.126,0.056-0.126,0.126C9.805,6.279,9.805,8.342,9.805,8.342z M9.434,9.804h5.132V9.075H9.434V9.804z M15.298,19.699l-3.297,0.012l-3.299-0.012v1.757c0,0.447,0.364,0.811,0.811,0.811h4.974c0.447,0,0.811-0.364,0.811-0.811V19.699z M15.298,12.945c0-0.171-0.133-0.439-0.269-0.543l-0.633-0.482c-0.318-0.242-0.558-0.726-0.558-1.126v-0.259h-3.677v0.259c0,0.4-0.24,0.884-0.558,1.126L9,12.38h0.795c0.202,0,0.366,0.164,0.366,0.366s-0.164,0.366-0.366,0.366H8.702v0.725h6.596V12.945zM13.196,17.05c0-0.563-0.714-1.346-0.933-1.573c-0.069-0.072-0.164-0.112-0.264-0.112s-0.195,0.04-0.264,0.112c-0.219,0.227-0.933,1.01-0.933,1.573c0,0.66,0.537,1.196,1.196,1.196S13.196,17.71,13.196,17.05z" />
</svg>