<svg class="d-icon d-icon-seed-height" xmlns="http://www.w3.org/2000/svg" width="24px" height="24px" viewBox="0 0 24 24"
	fill="currentcolor" stroke="none">
	<path
		d="M20.6,7.574c0.049-0.148,0.026-0.31-0.062-0.439s-0.23-0.209-0.387-0.218c-0.009,0-0.11-0.002-0.119-0.002c-0.611,0-3.267,0.149-5.729,2.564c0.826-4.627-1.762-8.41-1.893-8.598c-0.187-0.269-0.633-0.269-0.819,0c-0.132,0.188-2.719,3.971-1.893,8.598C7.234,7.064,4.58,6.915,3.968,6.915c-0.009,0-0.111,0.002-0.12,0.002C3.692,6.926,3.55,7.006,3.462,7.135S3.352,7.426,3.4,7.574c0.044,0.133,0.933,2.708,4.018,4.434C5.93,12.334,4.882,13.1,4.827,13.141c-0.132,0.098-0.207,0.254-0.202,0.418s0.091,0.314,0.229,0.403c0.052,0.033,1.286,0.816,2.971,0.816c0.519,0,1.023-0.073,1.51-0.219c-0.093,0.25-0.132,0.42-0.136,0.438c-0.035,0.156,0.008,0.32,0.115,0.439c0.095,0.107,0.231,0.168,0.374,0.168c0.017,0,0.033-0.001,0.05-0.003c0.051-0.005,0.927-0.109,1.763-0.703v1.109c-1.387,0.041-4.938,0.286-4.938,1.727c0,0.042,0.016,0.079,0.022,0.119l-0.006,0.002l0.025,0.102c0.008,0.029,0.011,0.06,0.022,0.089l1.352,5.422h8.045l1.354-5.425c0.009-0.023,0.011-0.048,0.018-0.071l0.029-0.117l-0.007-0.002c0.006-0.04,0.022-0.076,0.022-0.118c0-1.44-3.552-1.685-4.938-1.727V14.9c0.836,0.594,1.713,0.698,1.764,0.703c0.157,0.019,0.317-0.045,0.423-0.165c0.107-0.119,0.149-0.283,0.115-0.439c-0.004-0.019-0.043-0.188-0.136-0.438c0.486,0.146,0.991,0.219,1.51,0.219c1.685,0,2.919-0.783,2.971-0.816c0.138-0.089,0.223-0.239,0.229-0.403c0.005-0.164-0.07-0.32-0.202-0.418c-0.056-0.041-1.099-0.803-2.584-1.131C19.664,10.29,20.556,7.708,20.6,7.574z M15.241,22.469H8.759l-0.88-3.529c1.488,0.505,3.752,0.529,4.121,0.529c0.369,0,2.634-0.024,4.122-0.53L15.241,22.469z M16.383,17.735c-0.385,0.295-1.974,0.733-4.383,0.733s-3.998-0.438-4.382-0.733c0.356-0.275,1.759-0.668,3.882-0.724v1.052h1v-1.052C14.624,17.067,16.026,17.46,16.383,17.735z M13.823,12.06c-0.001,0-0.002,0-0.003,0c-0.265,0.075-0.399,0.344-0.326,0.609c0.074,0.265,0.364,0.415,0.633,0.344c0.367-0.101,0.753-0.151,1.146-0.151c1.011,0,1.917,0.333,2.523,0.629c-0.423,0.149-0.985,0.287-1.62,0.287c-0.94,0-1.825-0.299-2.63-0.89c-0.215-0.158-0.516-0.119-0.684,0.087c-0.168,0.207-0.146,0.509,0.053,0.688c0.221,0.2,0.394,0.429,0.525,0.649c-0.352-0.18-0.735-0.462-1.019-0.907c-0.091-0.145-0.251-0.232-0.422-0.232c-0.171,0-0.331,0.088-0.422,0.232c-0.279,0.439-0.662,0.722-1.015,0.901c0.132-0.219,0.304-0.445,0.522-0.645c0.197-0.178,0.22-0.48,0.052-0.687c-0.168-0.205-0.469-0.246-0.683-0.087c-0.805,0.591-1.689,0.89-2.629,0.89c-0.636,0-1.199-0.138-1.624-0.288c0.839-0.41,2.256-0.865,3.71-0.466c0.267,0.073,0.521-0.088,0.595-0.354c0.074-0.266-0.102-0.546-0.367-0.621c-3.328-0.929-4.859-2.985-5.46-4.079c1.313,0.187,3.933,0.983,5.936,4.289c0.138,0.228,0.431,0.309,0.667,0.18c0.235-0.127,0.328-0.417,0.211-0.657C9.503,7.683,11.164,3.71,12,2.148c0.836,1.562,2.497,5.534,0.508,9.633c-0.116,0.24-0.023,0.53,0.211,0.657s0.528,0.049,0.667-0.18c1.984-3.274,4.574-4.087,5.932-4.283C18.712,9.072,17.174,11.124,13.823,12.06z" />
</svg>