<svg class="d-icon d-icon-seed-zones" xmlns="http://www.w3.org/2000/svg" width="24px" height="24px" viewBox="0 0 24 24"
	fill="currentcolor" stroke="none">
	<path
		d="M9.375,6.87c0-0.231-0.03-0.455-0.086-0.668L8.344,3.114c-0.2-0.692-0.838-1.197-1.594-1.197S5.356,2.422,5.156,3.114L4.211,6.202C4.155,6.415,4.125,6.639,4.125,6.87c0,1.245,0.869,2.282,2.031,2.552v1.454h1.188V9.421C8.506,9.151,9.375,8.115,9.375,6.87z M14.625,6.87c0-0.231-0.03-0.455-0.086-0.668l-0.945-3.088c-0.2-0.692-0.838-1.197-1.594-1.197s-1.394,0.506-1.594,1.197L9.461,6.202C9.405,6.415,9.375,6.639,9.375,6.87c0,1.245,0.869,2.282,2.031,2.552v1.454h1.188V9.421C13.756,9.151,14.625,8.115,14.625,6.87z M19.875,6.87c0-0.231-0.03-0.455-0.086-0.668l-0.945-3.088c-0.2-0.692-0.838-1.197-1.594-1.197s-1.394,0.506-1.594,1.197l-0.945,3.088c-0.056,0.213-0.086,0.437-0.086,0.668c0,1.245,0.869,2.282,2.031,2.552v1.454h1.188V9.421C19.006,9.151,19.875,8.115,19.875,6.87z" />
	<path
		d="M8.063,17.706v-1.065H2.787c1.617,2.865,4.528,4.897,7.942,5.307v-2.26L8.063,17.706z M15.636,13.547l3.111,2.313l3.677-2.668c0.058-0.35,0.098-0.705,0.121-1.066H11.797v1.422L15.636,13.547L15.636,13.547z M15.222,14.797h-4.675v-2.672H1.455c0.072,1.148,0.322,2.246,0.732,3.266h7.125v1.687l2.667,1.981v2.972c0.007,0,0.014,0.001,0.021,0.001c4.558,0,8.431-2.888,9.919-6.929l-3.18,2.308L15.222,14.797z" />
</svg>