<?xml version="1.0" standalone="no"?>
<!DOCTYPE svg PUBLIC "-//W3C//DTD SVG 20010904//EN"
 "http://www.w3.org/TR/2001/REC-SVG-20010904/DTD/svg10.dtd">
<svg version="1.0" xmlns="http://www.w3.org/2000/svg"
 width="700.000000pt" height="700.000000pt" viewBox="0 0 700.000000 700.000000"
 preserveAspectRatio="xMidYMid meet">
<metadata>
Created by potrace 1.14, written by Peter Selinger 2001-2017
</metadata>
<g transform="translate(0.000000,700.000000) scale(0.100000,-0.100000)"
fill="#000000" stroke="none">
<path d="M3255 6733 c-184 -17 -422 -57 -565 -95 -41 -11 -82 -21 -90 -23 -8
-2 -16 -4 -17 -5 -2 -2 -6 -3 -10 -4 -214 -55 -591 -227 -818 -375 -68 -44
-245 -170 -255 -181 -3 -3 -25 -21 -50 -40 -178 -139 -432 -409 -586 -625
-122 -170 -270 -432 -335 -590 -4 -11 -19 -45 -32 -75 -43 -98 -127 -357 -143
-440 -3 -14 -7 -33 -10 -42 -11 -37 -41 -191 -48 -248 -31 -242 -34 -295 -31
-540 2 -135 6 -256 9 -270 2 -14 7 -51 11 -83 7 -77 50 -303 75 -402 66 -260
189 -564 321 -794 27 -46 49 -85 49 -86 0 -5 127 -192 169 -249 170 -229 438
-498 663 -664 440 -324 947 -534 1468 -608 19 -2 44 -6 55 -9 133 -27 660 -27
826 0 13 2 47 6 74 10 40 5 216 40 305 60 104 24 338 101 428 142 29 12 55 23
58 23 12 0 257 123 338 169 302 175 594 415 829 681 133 151 315 416 419 610
156 290 285 669 334 980 3 19 7 46 10 60 2 14 6 52 10 85 3 33 8 71 11 85 2
14 6 129 8 255 4 262 -6 414 -40 595 -3 14 -7 41 -10 60 -48 296 -199 708
-365 996 -28 48 -50 88 -50 90 0 5 -129 194 -172 251 -184 250 -466 524 -728
711 -276 195 -657 379 -955 462 -22 6 -65 18 -95 26 -67 19 -268 60 -330 68
-25 4 -67 9 -95 12 -27 3 -61 8 -75 11 -30 6 -508 11 -565 6z m495 -297 c615
-55 1176 -289 1656 -691 152 -127 384 -382 506 -555 301 -429 491 -961 525
-1469 13 -194 5 -480 -17 -611 -5 -30 -12 -75 -15 -100 -40 -294 -193 -711
-368 -1005 -136 -228 -270 -399 -462 -590 -377 -377 -829 -635 -1351 -770 -73
-19 -154 -37 -180 -41 -27 -3 -51 -8 -54 -9 -3 -2 -33 -6 -65 -10 -33 -3 -67
-8 -75 -10 -64 -17 -404 -24 -571 -12 -82 6 -125 11 -264 31 -162 25 -420 96
-595 166 -780 311 -1388 932 -1683 1720 -36 96 -100 310 -110 365 -3 17 -8 41
-12 55 -15 67 -45 276 -51 360 -13 175 -8 462 12 605 31 230 106 532 169 680
109 260 160 359 268 530 176 278 403 530 664 737 85 69 287 205 375 253 171
95 418 202 568 247 109 33 164 48 192 53 16 3 56 12 90 20 93 21 260 44 373
51 55 4 101 7 102 8 6 5 303 -2 373 -8z"/>
<path d="M4690 5233 c-7 -32 -42 -159 -77 -283 -65 -225 -75 -257 -134 -465
-29 -103 -76 -278 -85 -317 -2 -10 -6 -26 -8 -35 -22 -86 -58 -262 -77 -373
-40 -229 -32 -691 17 -976 21 -124 29 -163 54 -270 34 -145 75 -285 168 -583
39 -122 67 -219 63 -215 -4 5 -53 88 -108 184 -56 96 -109 189 -120 207 -18
33 -196 335 -223 382 -79 133 -233 360 -326 481 -92 121 -315 347 -484 490
-14 12 -52 45 -85 75 -33 29 -89 77 -125 106 -36 30 -67 56 -70 59 -5 6 -102
85 -134 110 -10 8 -35 29 -55 45 -20 17 -79 64 -131 105 -93 73 -102 81 -135
109 -26 21 -27 9 -5 -54 11 -33 22 -68 24 -80 10 -46 91 -311 145 -475 115
-344 240 -621 370 -820 145 -223 448 -531 766 -776 153 -118 499 -344 527
-344 6 0 9 -3 5 -6 -3 -3 -149 42 -324 100 -533 177 -775 241 -993 262 -36 4
-78 8 -95 10 -130 13 -522 19 -903 15 l-103 -1 23 -23 c13 -12 60 -55 106 -94
187 -161 362 -250 637 -324 498 -134 560 -141 1233 -140 215 0 392 -1 392 -3
0 -2 -28 -9 -62 -15 -112 -20 -121 -22 -248 -52 -69 -17 -132 -32 -140 -34
-152 -33 -378 -108 -515 -169 -27 -13 -123 -54 -213 -92 -178 -75 -176 -71
-52 -89 93 -14 512 -13 615 1 267 37 545 109 710 183 130 59 274 132 348 178
83 51 244 162 274 188 6 5 33 28 59 50 449 371 784 926 897 1485 15 70 18 90
33 188 3 20 8 48 10 62 3 14 8 124 11 244 4 162 3 217 -6 212 -11 -7 -236
-263 -326 -371 -28 -33 -52 -62 -55 -65 -56 -56 -260 -334 -327 -445 -103
-171 -276 -505 -371 -715 -46 -101 -162 -345 -162 -339 0 3 23 102 50 220 73
307 140 620 156 729 2 19 9 58 14 85 5 28 12 77 16 110 3 33 8 62 9 65 9 16
20 219 20 380 0 164 -6 258 -20 325 -2 11 -7 36 -9 55 -3 19 -10 60 -16 90 -6
30 -13 69 -16 85 -12 70 -66 303 -109 470 -86 336 -271 955 -286 955 -3 0 -12
-26 -19 -57z"/>
</g>
</svg>
