<?xml version="1.0" encoding="utf-8"?>
<!-- Generator: Adobe Illustrator 17.0.0, SVG Export Plug-In . SVG Version: 6.00 Build 0)  -->
<!DOCTYPE svg PUBLIC "-//W3C//DTD SVG 1.1//EN" "http://www.w3.org/Graphics/SVG/1.1/DTD/svg11.dtd">
<svg version="1.1" id="Capa_1" xmlns="http://www.w3.org/2000/svg" xmlns:xlink="http://www.w3.org/1999/xlink" x="0px" y="0px"
	 width="320px" height="444.53px" viewBox="91 -22 320 444.53" enable-background="new 91 -22 320 444.53" xml:space="preserve">
<path fill="#FFFFFF" d="M138.673,319.991h-9.466v-10.577h9.466v-4.458c0-10.132,6.345-17.479,19.262-17.479
	c2.785,0,5.679,0.33,8.354,0.446v11.799c-1.893-0.22-3.786-0.33-5.79-0.33c-4.232,0-6.015,1.778-6.015,6.571v3.451h10.913v10.577
	h-10.913v46.993h-15.811V319.991z M185.782,342.043c0.446,10.022,5.344,14.584,14.144,14.584c6.345,0,11.469-3.896,12.471-7.462
	h13.918c-4.452,13.588-13.918,19.377-26.945,19.377c-18.155,0-29.399-12.471-29.399-30.285c0-17.264,11.915-30.4,29.399-30.4
	c19.597,0,29.063,16.477,27.946,34.187H185.782z M211.504,332.016c-1.447-8.013-4.898-12.245-12.581-12.245
	c-10.022,0-12.916,7.793-13.142,12.245H211.504z M236.718,309.413h15.03v10.688h0.225c2.895-7.237,10.688-12.245,18.37-12.245
	c1.117,0,2.454,0.22,3.456,0.556v14.699c-1.447-0.336-3.786-0.561-5.679-0.561c-11.584,0-15.591,8.354-15.591,18.486v25.948h-15.811
	V309.413z M301.531,309.413h11.579v10.577h-11.579v28.507c0,5.344,1.337,6.681,6.681,6.681c1.668,0,3.23-0.11,4.898-0.446v12.361
	c-2.669,0.446-6.125,0.556-9.24,0.556c-9.691,0-18.15-2.224-18.15-13.693v-33.966h-9.581v-10.577h9.581V292.15h15.811V309.413z
	 M337.616,300.503h-15.811v-13.026h15.811V300.503z M321.805,309.413h15.811v57.57h-15.811V309.413z M350.984,287.477h15.811v79.507
	h-15.811V287.477z M200.4,298.768h-11.023l12.623-20.935h17.484L200.4,298.768z M95.232,206.78h0.226
	c1.778-5.679,8.239-14.474,20.819-14.474c17.594,0,25.728,13.918,25.728,30.065c0,17.374-8.244,29.845-25.728,29.845
	c-9.46,0-17.479-4.012-20.819-13.252h-0.226v32.404H91v-77.724h4.232V206.78z M137.773,222.371c0-13.027-6.125-26.394-21.496-26.394
	c-15.255,0-20.935,12.806-20.935,26.394c0,13.588,4.788,26.168,20.935,26.168C131.202,248.539,137.773,236.514,137.773,222.371z
	 M195.611,240.3c0,3.341,0,6.901,3.786,6.901c0.781,0,1.783-0.11,3.115-0.33v3.561c-1.222,0.225-2.334,0.446-3.451,0.446
	c-6.681,0-7.683-3.676-7.683-8.354v-3.005h-0.22c-2.675,6.791-10.357,12.696-21.27,12.696c-10.803,0-19.157-4.122-19.157-16.147
	c0-13.362,11.584-16.147,21.05-16.928c18.931-1.337,19.708-2.559,19.708-11.915c0-2.559-2.895-11.249-15.921-11.249
	c-10.247,0-17.038,5.349-17.594,15.261h-4.232c0.556-12.586,8.349-18.931,21.826-18.931c10.022,0,20.043,3.115,20.043,14.92V240.3z
	 M191.379,218.364c-3.341,3.786-12.471,3.341-20.714,4.452c-10.022,1.112-15.701,4.678-15.701,13.252
	c0,6.901,5.013,12.471,15.035,12.471c19.267,0,21.38-16.482,21.38-19.487V218.364z M209.933,193.643h4.232v11.689h0.225
	c1.778-7.237,9.35-13.027,17.925-13.027c10.913,0,16.037,6.235,17.264,12.135h0.22c3.341-7.793,8.91-12.135,18.15-12.135
	c10.357,0,17.93,6.01,17.93,19.487v39.085h-4.232v-39.195c0-14.589-10.352-15.706-13.698-15.706
	c-10.352,0-17.925,7.352-17.925,21.05v33.851h-4.232v-39.195c0-14.369-9.801-15.706-13.478-15.706c-8.128,0-18.15,6.351-18.15,21.05
	v33.851h-4.232V193.643z M303.725,206.78h0.225c1.778-5.679,8.239-14.474,20.819-14.474c17.594,0,25.728,13.918,25.728,30.065
	c0,17.374-8.244,29.845-25.728,29.845c-9.46,0-17.479-4.012-20.819-13.252h-0.225v32.404h-4.232v-77.724h4.232V206.78z
	 M346.266,222.371c0-13.027-6.125-26.394-21.496-26.394c-15.255,0-20.935,12.806-20.935,26.394c0,13.588,4.788,26.168,20.935,26.168
	C339.695,248.539,346.266,236.514,346.266,222.371z M404.099,240.3c0,3.341,0,6.901,3.786,6.901c0.781,0,1.783-0.11,3.115-0.33
	v3.561c-1.222,0.225-2.334,0.446-3.451,0.446c-6.681,0-7.683-3.676-7.683-8.354v-3.005h-0.22
	c-2.674,6.791-10.357,12.696-21.27,12.696c-10.803,0-19.157-4.122-19.157-16.147c0-13.362,11.584-16.147,21.05-16.928
	c18.931-1.337,19.708-2.559,19.708-11.915c0-2.559-2.895-11.249-15.921-11.249c-10.247,0-17.038,5.349-17.594,15.261h-4.232
	c0.556-12.586,8.349-18.931,21.826-18.931c10.022,0,20.043,3.115,20.043,14.92V240.3z M399.867,218.364
	c-3.341,3.786-12.471,3.341-20.714,4.452c-10.022,1.112-15.701,4.678-15.701,13.252c0,6.901,5.013,12.471,15.035,12.471
	c19.267,0,21.38-16.482,21.38-19.487V218.364z M248.001,422.53c24.513,0,84.646-5.873,84.646-5.873l5.818-11.076
	c0,0-65.112,4.867-90.463,4.867s-90.463-4.867-90.463-4.867l5.818,11.076C163.356,416.657,223.489,422.53,248.001,422.53z"/>
<path fill="#EEA509" d="M332.736,14.681c-4.19,6.605-8.27,8.65-14.613,12.894c-2.147,1.437-7.885,3.191-6.845,6.738
	c0.181,0.616,2.675,0.434,2.811,1.359c0.175,1.193,1.124,0.141,1.406,2.436c0.083,0.676-1.77,1.124-1.921,1.827
	c-0.244,1.138,0.643,2.076,0.703,3.467c0.375,8.715-5.935,8.318-10.87,9.558c-3.297,3.435,1.503,4.091,2.858,5.903
	c3.081,4.12,2.383,9.379-0.925,13.197c-3.155,3.641-5.954,2.279-10.413,0.765c-7.902-2.683-12.918-2.575-20.803-5.903
	c-1.365-0.576-5.066-1.902-6.606-2.811c-1.179-0.696-4.584-3.034-4.264-1.218c1.265,7.169-4.73,5.484-8.253,7.619
	c-4.445,5.447-11.207,7.048-17.008,10.243c-2.237,3.907-0.998,8.178-1.288,12.289c2.156,5.891,0.972,12.158,2.047,18.171
	c1.185,4.207,2.369,8.415,3.552,12.623c1.307,7.198-0.705,14.194-1.289,21.278c2.288,6.63,4.628,13.242,6.827,19.901
	c0.327,0.992,1.185,2.235,1.03,3.225l-5.676,0.058c-0.29-0.47-0.519-1.042-0.692-1.705c-1.213-4.648-2.664-9.233-4.016-13.845
	c-0.094-0.5-0.187-1-0.281-1.5c-1.213-2.937-4.988-18.078-4.705-22.958c-2.898-7.942-3.511-16.151-2.868-24.507
	c-0.204-1.896-0.519-3.814,1.027-5.376c0.014-2.586,0.028-5.172,0.042-7.76c-1.388-8.628-7.336-11.153-15.085-11.267
	c-3.454,1.15-7.285,0.974-10.805,2.768c-0.137-1.103,0.749-3.673,0-5.341c-0.69-1.537-5.259,1.531-3.936-0.562
	c2.01-3.178,2.905-7.122-2.274-8.559c-6.243-1.733-18.349-2.215-26.588-0.062c-8.091,2.115-12.654,6.287-12.65,6.278
	c-12.468,6.116-23.498,1.105-35.652-3.065c-1.965-0.674-2.706-3.698-0.004-6.282c0.402-0.56,0.957-0.494,1.359-1.054
	c1.333-2.847-0.88-3.839-1.524-6.589c0,0-0.412-1.168,0.118-3.016c0.219-3.447,1.756-3.958,3.842-5.576
	c4.661-5.419,11.942-6.494,17.13-2.782c8.295,5.935,12.568,8.071,22.321,8.826c1.252,0.097,5.013-0.328,5.013-0.328
	c-2.952-2.858-1.755-3.617-4.225-4.834c-2.691-1.325-5.462-2.516-7.411-4.947c-2.573-1.552-4.941-3.325-6.47-6.001
	c-5.531-4.445-9.759-10.063-14.173-15.535c-1.897-2.352-0.996-0.211-2.157-3.261c-2.717-3.28,0.327-8.518,3.186-9.652
	c5.036-1.996,10.805-0.164,16.046-0.701c0,0,0.253-0.012,0.259-0.002c1.135-6.156,4.097-8.279,8.527-4.31
	c1.702,1.525,3.471,5.418,5.997,4.217c0.519-1.039,2.202-6.313,2.721-7.353c3.564-4.594,5.573-3.363,5.197-10.123
	c-0.234-4.217,0.21-8.2,2.917-8.445c2.18-0.197,2.467,0.988,2.939,2.916c0.303,1.235,0.746,2.543,1.124,3.748
	c0.436,1.391-0.234,6.606,2.062,6.372c1.948-0.199,2.557-3.586,3.561-4.638c5.621-5.892,9.479-8.621,18.46-0.469
	c2.153,1.954,5.082,5.37,8.387,5.201c5.074-0.26,7.378,0.787,7.284,5.747c-0.209,10.98-0.729,12.057,7.053,11.823
	c10.917-0.328,13.4-7.496,11.292-15.696c-1.759-6.842-0.76-9.46,2.459-15.743c2.649-5.172,4.78-5.356,6.818-2.53
	c2.254,3.125,2.296,6.231,9.277,4.076c4.353-1.344,11.087,10.646,10.636,17.945c-0.463,7.479-3.786,13.445-5,20.624
	c-0.332,1.966-1.935,4.714-2.169,6.691c-0.177,1.491-0.656,4.214,1.218,4.826c1.321,0.431,3.714-2.353,4.691-3.211
	c7.188-6.316,12.996-13.666,16.508-22.618c2.357-6.009,2.107-13.066,3.305-19.993c0.422-2.436,2.292-2.682,3.099-4.526
	c1.259-2.876,1.958-4.29,5.006-4.611c3.058-0.322,0.206,5.173,2.53,6.419c8.459-1.365,11.499-3.347,7.095,7.149
	c-1.613,11.405,3.306,4.94,6.07,4.799c1.988-0.101,5.248,0.281,5.248,1.499c0,2.778-2.518,3.255-4.204,4.268
	c-8.661,5.204-12.329,11.387-19.344,18.381c-2.237,2.23-4.939,3.355-4.236,7.525c1.499,0.234,5.576,0.656,7.775-1.705l0.002-0.02
	c7.218-10.3,17.027-9.773,26.051-17.39c1.083-0.914,4.104-2.388,5.107-0.89C334.412,10.442,333.571,13.364,332.736,14.681z"/>
</svg>
