<?xml version="1.0" encoding="utf-8"?>
<!-- Generator: Adobe Illustrator 17.0.0, SVG Export Plug-In . SVG Version: 6.00 Build 0)  -->
<!DOCTYPE svg PUBLIC "-//W3C//DTD SVG 1.1//EN" "http://www.w3.org/Graphics/SVG/1.1/DTD/svg11.dtd">
<svg version="1.1" id="Capa_1" xmlns="http://www.w3.org/2000/svg" xmlns:xlink="http://www.w3.org/1999/xlink" x="0px" y="0px"
	 width="320px" height="688.192px" viewBox="90 -130.617 320 688.192" enable-background="new 90 -130.617 320 688.192"
	 xml:space="preserve">
<path fill-rule="evenodd" clip-rule="evenodd" fill="#C6C6C5" d="M93.926,138.012h312.148v312.151H93.926V138.012z M243.343,375.952
	l0.068,0.575c-11.985,0.554-19.939,17.1-40.451,16.092c12.257,12.603,30.51-5.767,41.067-10.887l0.002,0.016h84.955v-5.796H243.343z
	 M181.412,386.259c18.143,13.78,44.301-11.496,57.009-11.018C222.124,366.001,202.289,390.175,181.412,386.259z M167.789,375.878
	c13.893,14.083,40.304-5.03,52.615-3.394C202.469,363.176,184.987,380.88,167.789,375.878z M149.122,359.422
	c17.295,20.954,38.498,2.998,52.35,6.684C186.917,353.85,168.318,370.839,149.122,359.422z M133.063,341.536
	c12.328,20.632,44.33,12.584,54.403,14.998C178,345.191,149.173,355.062,133.063,341.536z M122.264,321.524
	c12.559,27.71,44.368,18.738,52.213,25.699C163.433,332.591,139.684,340.283,122.264,321.524z M116.579,300.467
	c3.206,25.873,32.764,21.717,45.784,34.822C148.35,313.012,130.121,321.932,116.579,300.467z M113.628,284.346
	c2.426,19.353,25.231,25.901,36.459,34.034C139.305,299.827,128.577,304.043,113.628,284.346z M111.598,267.249
	c6.054,26.066,20.14,22.517,29.163,34.881C135.3,285.252,117.127,280.086,111.598,267.249z M112.864,255.903
	c2.431,16.566,10.112,15.287,20.12,27.319C129.247,270.153,121.298,271.271,112.864,255.903z M113.516,245.681
	c2.416,15.181,7.779,14.325,14.197,21.538C124.448,256.64,120.987,258.455,113.516,245.681z M115.014,232.148
	c-1.498,13.532,6.108,14.546,12.702,26.564C126.035,244.468,118.19,246.679,115.014,232.148z M117.763,221.951
	c-2.749,10.195,3.495,14.051,7.804,22.307C126.062,231.015,120.386,234.086,117.763,221.951z M119.814,210.834
	c-2.427,9.676,1.986,14.122,5.75,18.979C125.643,222.394,120.611,219.772,119.814,210.834z M122.714,201.231
	c-3.381,10.025,2.353,11.947,4.549,20.084C128.811,213.006,122.994,208.859,122.714,201.231z M131.058,190.088
	c-0.81,2.134-2.01,5.226-0.97,8.22C131.583,195.783,130.742,192.622,131.058,190.088z M127.911,193.945
	c-4.893,4.894-1.844,10.956,0.286,15.898C129.2,204.132,126.864,200.982,127.911,193.945z"/>
<path fill="#1D1D1B" d="M406.074,138.012v312.151H250.409v-68.415h78.575v-5.796h-78.575v-35.143
	c-32.41-5.559-58.686-14.596-67.785-42.456h66.524v-160.34H406.074z"/>
<path fill-rule="evenodd" clip-rule="evenodd" fill="#FFE500" d="M354.001,246.246c1.936,11.459,15.189,53.194-28.771,51.884
	l0.241-76.675V61.191L354.001,246.246z"/>
<path fill-rule="evenodd" clip-rule="evenodd" fill="#EE7D00" d="M334.435,245.528c2.825,15.32,10.299,45.54-9.205,52.602
	c0,0-22.045,0-30.621,0L294.351,8.902L334.435,245.528z"/>
<path fill-rule="evenodd" clip-rule="evenodd" fill="#E20D17" d="M313.965,249.932c0.269,8.989,8.977,42.856-19.357,48.37
	l-47.167,0.051V-90.099L313.965,249.932z"/>
<path fill="#1D1D1B" d="M127.634,494.313h11.551v40.162c0,4.027-0.533,7.492-1.6,10.394c-1.066,2.904-2.546,5.303-4.442,7.199
	c-1.896,1.896-4.206,3.286-6.93,4.176c-2.725,0.888-5.717,1.332-8.975,1.332c-15.757,0-23.634-7.196-23.634-21.591v-41.671h12.171
	v39.273c0,2.428,0.224,4.487,0.668,6.176c0.443,1.687,1.139,3.051,2.089,4.087c0.946,1.037,2.132,1.778,3.554,2.22
	c1.421,0.445,3.079,0.668,4.975,0.668c3.731,0,6.427-1.036,8.086-3.111c1.658-2.073,2.488-5.419,2.488-10.04V494.313z
	 M188.409,556.953h8.886v-62.64h-11.551v32.697l1.421,9.507h-0.443l-4.711-9.507l-23.545-33.142h-8.885v62.641h11.551v-32.431
	l-1.423-9.775h0.444l4.886,9.775L188.409,556.953z M247.318,545.669h-27.19v-51.356h-12.171v62.196h39.361V545.669z
	 M253.627,494.935v61.574h12.171v-21.413c0.297,0.059,0.784,0.119,1.466,0.177c0.682,0.06,1.379,0.103,2.087,0.133
	c0.712,0.031,1.393,0.045,2.044,0.045c0.652,0,1.127,0,1.421,0c3.081,0,6.058-0.385,8.931-1.155
	c2.872-0.769,5.436-2.013,7.686-3.731c2.251-1.719,4.057-3.924,5.419-6.619c1.362-2.696,2.044-5.999,2.044-9.908
	c0-4.325-0.784-7.834-2.354-10.528c-1.57-2.696-3.599-4.799-6.087-6.309c-2.488-1.511-5.286-2.517-8.397-3.02
	c-3.109-0.505-6.204-0.756-9.283-0.756c-2.962,0-5.94,0.133-8.931,0.4C258.855,494.091,256.114,494.461,253.627,494.935
	L253.627,494.935z M276.285,504.353c1.481,0.296,2.797,0.829,3.952,1.6c1.155,0.769,2.089,1.791,2.799,3.065
	c0.711,1.274,1.067,2.888,1.067,4.842c0,2.31-0.37,4.178-1.111,5.599s-1.733,2.531-2.976,3.332c-1.244,0.799-2.65,1.347-4.221,1.642
	c-1.57,0.298-3.155,0.445-4.753,0.445c-0.237,0-0.608,0-1.11,0c-0.504,0-1.022-0.014-1.555-0.045
	c-0.533-0.03-1.037-0.074-1.512-0.133c-0.473-0.06-0.829-0.119-1.066-0.177v-20.17c0.651-0.119,1.511-0.221,2.578-0.311
	c1.066-0.089,2.191-0.133,3.377-0.133C273.292,503.908,274.804,504.057,276.285,504.353z M301.34,514.66l2.755,8.617
	c1.658-0.769,3.777-1.39,6.353-1.866c2.578-0.473,5.021-0.71,7.329-0.71c3.081,0,5.065,0.727,5.954,2.177
	c0.888,1.451,1.125,3.836,0.711,7.152c-3.91-0.178-7.448-0.045-10.618,0.4c-3.17,0.443-5.894,1.243-8.175,2.398
	c-2.28,1.155-4.029,2.665-5.243,4.532c-1.215,1.866-1.821,4.162-1.821,6.885c0,1.956,0.326,3.717,0.977,5.286
	c0.652,1.57,1.571,2.933,2.755,4.088c1.185,1.157,2.606,2.044,4.266,2.666c1.658,0.622,3.524,0.934,5.596,0.934
	c3.317,0,6.028-0.668,8.131-2c2.103-1.332,3.747-2.918,4.931-4.753h0.444l1.866,6.13h9.418c-0.71-2.132-1.155-4.397-1.333-6.797
	c-0.177-2.398-0.251-4.872-0.221-7.419c0.029-2.548,0.133-5.138,0.31-7.774c0.178-2.636,0.267-5.258,0.267-7.863
	c0-2.37-0.252-4.503-0.757-6.399c-0.503-1.896-1.361-3.524-2.576-4.887c-1.214-1.362-2.858-2.413-4.931-3.153
	c-2.074-0.741-4.65-1.111-7.73-1.111c-3.555,0-6.961,0.31-10.219,0.932C306.524,512.748,303.71,513.594,301.34,514.66L301.34,514.66
	z M311.959,546.336c-0.978-0.917-1.466-2.208-1.466-3.866c0-1.184,0.386-2.161,1.155-2.932c0.77-0.769,1.806-1.363,3.109-1.778
	c1.304-0.414,2.799-0.68,4.487-0.799c1.688-0.118,3.451-0.088,5.286,0.089v5.775c-0.652,1.186-1.658,2.296-3.021,3.332
	c-1.362,1.037-3.198,1.555-5.509,1.555C314.284,547.714,312.935,547.254,311.959,546.336z M382.462,556.509v-29.142
	c0.594-1.956,1.497-3.496,2.71-4.623c1.214-1.125,2.858-1.687,4.931-1.687c2.548,0,4.192,0.874,4.932,2.621
	c0.741,1.747,1.11,4.369,1.11,7.864v24.967h11.551v-26.655c0-3.733-0.267-6.811-0.801-9.24c-0.533-2.429-1.347-4.369-2.443-5.82
	c-1.096-1.451-2.517-2.474-4.264-3.066c-1.749-0.594-3.866-0.889-6.353-0.889c-3.021,0-5.599,0.682-7.73,2.044
	c-2.133,1.362-3.88,3.198-5.244,5.509c-1.006-2.725-2.413-4.665-4.218-5.82c-1.807-1.155-4.133-1.733-6.976-1.733
	c-3.317,0-6.025,0.712-8.131,2.133c-2.101,1.421-3.833,3.079-5.196,4.974h-0.357l-1.332-5.862h-8.974v44.425h11.55v-29.587
	c0.651-1.718,1.599-3.125,2.843-4.22c1.243-1.097,2.873-1.645,4.886-1.645c2.429,0,4.029,0.859,4.799,2.576
	c0.769,1.719,1.155,4.621,1.155,8.708v24.168H382.462z"/>
</svg>
