<?xml version="1.0" encoding="utf-8"?>
<!-- Generator: Adobe Illustrator 17.0.0, SVG Export Plug-In . SVG Version: 6.00 Build 0)  -->
<!DOCTYPE svg PUBLIC "-//W3C//DTD SVG 1.1//EN" "http://www.w3.org/Graphics/SVG/1.1/DTD/svg11.dtd">
<svg version="1.1" id="Capa_1" xmlns="http://www.w3.org/2000/svg" xmlns:xlink="http://www.w3.org/1999/xlink" x="0px" y="0px"
	 width="320px" height="688.192px" viewBox="-0.663 -34.81 320 688.192" enable-background="new -0.663 -34.81 320 688.192"
	 xml:space="preserve">
<polygon fill-rule="evenodd" clip-rule="evenodd" fill="#FFFFFF" points="250.019,229.894 230.882,105.764 230.882,229.894 
	228.876,229.894 199.72,57.779 199.852,205.422 152.853,-34.81 152.853,229.894 -0.663,229.894 -0.663,549.896 319.337,549.896 
	319.337,229.894 "/>
<path fill-rule="evenodd" clip-rule="evenodd" fill="#C6C6C5" d="M3.264,233.819h312.148v312.151H3.264V233.819z M152.68,471.759
	l0.068,0.575c-11.985,0.554-19.939,17.1-40.451,16.092c12.257,12.603,30.51-5.767,41.067-10.887l0.002,0.016h84.955v-5.796H152.68z
	 M90.749,482.066c18.143,13.78,44.301-11.496,57.009-11.018C131.462,461.808,111.626,485.982,90.749,482.066z M77.126,471.685
	c13.893,14.083,40.304-5.03,52.615-3.394C111.807,458.983,94.325,476.687,77.126,471.685z M58.459,455.229
	c17.295,20.954,38.498,2.998,52.35,6.684C96.254,449.657,77.655,466.646,58.459,455.229z M42.4,437.343
	c12.328,20.632,44.33,12.584,54.403,14.998C87.337,440.998,58.51,450.869,42.4,437.343z M31.602,417.331
	c12.559,27.71,44.368,18.738,52.213,25.699C72.77,428.398,49.022,436.09,31.602,417.331z M25.917,396.274
	c3.206,25.873,32.764,21.717,45.784,34.822C57.688,408.819,39.458,417.739,25.917,396.274z M22.965,380.153
	c2.426,19.353,25.231,25.901,36.459,34.034C48.643,395.634,37.914,399.85,22.965,380.153z M20.935,363.056
	c6.054,26.066,20.14,22.517,29.163,34.881C44.637,381.059,26.464,375.893,20.935,363.056z M22.201,351.71
	c2.431,16.566,10.112,15.287,20.12,27.319C38.585,365.96,30.635,367.078,22.201,351.71z M22.853,341.488
	c2.416,15.181,7.779,14.325,14.197,21.538C33.785,352.447,30.325,354.262,22.853,341.488z M24.352,327.955
	c-1.498,13.532,6.108,14.546,12.702,26.564C35.373,340.275,27.527,342.486,24.352,327.955z M27.1,317.758
	c-2.749,10.195,3.495,14.051,7.804,22.307C35.399,326.822,29.723,329.893,27.1,317.758z M29.151,306.641
	c-2.427,9.676,1.986,14.122,5.75,18.979C34.98,318.201,29.949,315.579,29.151,306.641z M32.052,297.038
	c-3.381,10.025,2.353,11.947,4.549,20.084C38.148,308.813,32.331,304.666,32.052,297.038z M40.395,285.895
	c-0.81,2.134-2.01,5.226-0.97,8.22C40.92,291.59,40.079,288.43,40.395,285.895z M37.248,289.752
	c-4.893,4.894-1.844,10.956,0.286,15.898C38.538,299.939,36.202,296.789,37.248,289.752z"/>
<path fill="#1D1D1B" d="M315.412,233.819v312.151H159.746v-68.415h78.575v-5.796h-78.575v-35.143
	c-32.41-5.559-58.686-14.596-67.785-42.456h66.524v-160.34H315.412z"/>
<path fill-rule="evenodd" clip-rule="evenodd" fill="#FFE500" d="M263.338,342.053c1.936,11.459,15.189,53.194-28.771,51.884
	l0.241-76.675V156.998L263.338,342.053z"/>
<path fill-rule="evenodd" clip-rule="evenodd" fill="#EE7D00" d="M243.772,341.335c2.825,15.32,10.299,45.54-9.205,52.602
	c0,0-22.045,0-30.621,0l-0.258-289.228L243.772,341.335z"/>
<path fill-rule="evenodd" clip-rule="evenodd" fill="#E20D17" d="M223.303,345.739c0.269,8.989,8.977,42.856-19.357,48.37
	l-47.167,0.051V5.708L223.303,345.739z"/>
<path fill="#FFFFFF" d="M36.971,590.12h11.551v40.162c0,4.027-0.533,7.492-1.6,10.394c-1.066,2.904-2.546,5.303-4.442,7.199
	c-1.896,1.896-4.206,3.286-6.93,4.176c-2.725,0.888-5.717,1.332-8.975,1.332c-15.757,0-23.634-7.196-23.634-21.591V590.12h12.171
	v39.273c0,2.428,0.224,4.487,0.668,6.176c0.443,1.687,1.139,3.051,2.089,4.087c0.946,1.037,2.132,1.778,3.554,2.22
	c1.421,0.445,3.079,0.668,4.975,0.668c3.731,0,6.427-1.036,8.086-3.111c1.658-2.073,2.488-5.419,2.488-10.04V590.12z M97.746,652.76
	h8.886v-62.64H95.082v32.697l1.421,9.507h-0.443l-4.711-9.507l-23.545-33.142h-8.885v62.641H70.47v-32.431l-1.423-9.775h0.444
	l4.886,9.775L97.746,652.76z M156.655,641.476h-27.19V590.12h-12.171v62.196h39.361V641.476z M162.965,590.742v61.574h12.171
	v-21.413c0.297,0.059,0.784,0.119,1.466,0.177c0.682,0.06,1.379,0.103,2.087,0.133c0.712,0.031,1.393,0.045,2.044,0.045
	c0.652,0,1.127,0,1.421,0c3.081,0,6.058-0.385,8.931-1.155c2.872-0.769,5.436-2.013,7.686-3.731
	c2.251-1.719,4.057-3.924,5.419-6.619c1.362-2.696,2.044-5.999,2.044-9.907c0-4.325-0.784-7.834-2.354-10.528
	c-1.57-2.696-3.599-4.799-6.087-6.309c-2.488-1.511-5.286-2.517-8.397-3.02c-3.109-0.505-6.204-0.756-9.283-0.756
	c-2.962,0-5.94,0.133-8.931,0.4C168.193,589.898,165.452,590.268,162.965,590.742L162.965,590.742z M185.622,600.16
	c1.481,0.296,2.797,0.829,3.952,1.6c1.155,0.769,2.089,1.791,2.799,3.065c0.711,1.274,1.067,2.888,1.067,4.842
	c0,2.31-0.37,4.178-1.111,5.599c-0.741,1.421-1.733,2.531-2.976,3.332c-1.244,0.799-2.65,1.347-4.221,1.642
	c-1.57,0.298-3.155,0.445-4.753,0.445c-0.237,0-0.608,0-1.11,0c-0.504,0-1.022-0.014-1.555-0.045
	c-0.533-0.03-1.037-0.074-1.512-0.133c-0.473-0.06-0.829-0.119-1.066-0.177v-20.17c0.651-0.119,1.511-0.221,2.578-0.311
	c1.066-0.089,2.191-0.133,3.377-0.133C182.63,599.715,184.141,599.864,185.622,600.16z M210.677,610.467l2.755,8.617
	c1.658-0.769,3.777-1.39,6.353-1.866c2.578-0.473,5.021-0.71,7.329-0.71c3.081,0,5.065,0.727,5.954,2.177
	c0.888,1.451,1.125,3.836,0.711,7.152c-3.91-0.178-7.448-0.045-10.618,0.4c-3.17,0.443-5.894,1.243-8.175,2.398
	s-4.029,2.665-5.243,4.532c-1.215,1.866-1.821,4.162-1.821,6.885c0,1.956,0.326,3.717,0.977,5.286
	c0.652,1.57,1.571,2.933,2.755,4.088c1.185,1.157,2.606,2.044,4.266,2.666c1.658,0.622,3.524,0.934,5.596,0.934
	c3.317,0,6.028-0.668,8.131-2c2.103-1.332,3.747-2.918,4.931-4.753h0.444l1.866,6.13h9.418c-0.71-2.132-1.155-4.397-1.333-6.797
	c-0.177-2.398-0.251-4.872-0.221-7.419c0.029-2.548,0.133-5.138,0.31-7.774c0.178-2.636,0.267-5.258,0.267-7.863
	c0-2.37-0.252-4.503-0.757-6.399c-0.503-1.896-1.361-3.524-2.576-4.887c-1.214-1.362-2.858-2.413-4.931-3.153
	c-2.074-0.741-4.65-1.111-7.73-1.111c-3.555,0-6.961,0.31-10.219,0.932C215.861,608.555,213.047,609.401,210.677,610.467
	L210.677,610.467z M221.296,642.143c-0.978-0.917-1.466-2.208-1.466-3.866c0-1.184,0.386-2.161,1.155-2.932
	c0.77-0.769,1.806-1.363,3.109-1.778c1.304-0.414,2.799-0.68,4.487-0.799c1.688-0.118,3.451-0.088,5.286,0.089v5.775
	c-0.652,1.186-1.658,2.296-3.021,3.332c-1.362,1.037-3.198,1.555-5.509,1.555C223.621,643.521,222.273,643.061,221.296,642.143z
	 M291.8,652.316v-29.142c0.594-1.956,1.497-3.496,2.71-4.623c1.214-1.125,2.858-1.687,4.931-1.687c2.548,0,4.192,0.874,4.932,2.621
	c0.741,1.747,1.11,4.369,1.11,7.864v24.967h11.551v-26.655c0-3.733-0.267-6.811-0.801-9.24c-0.533-2.429-1.347-4.369-2.443-5.82
	c-1.096-1.451-2.517-2.474-4.264-3.066c-1.749-0.594-3.866-0.889-6.353-0.889c-3.021,0-5.599,0.682-7.73,2.044
	c-2.133,1.362-3.88,3.198-5.244,5.509c-1.006-2.725-2.413-4.665-4.218-5.82c-1.807-1.155-4.133-1.733-6.976-1.733
	c-3.317,0-6.025,0.712-8.131,2.133c-2.101,1.421-3.833,3.079-5.196,4.974h-0.357l-1.332-5.862h-8.974v44.425h11.55v-29.587
	c0.651-1.718,1.599-3.125,2.843-4.22c1.243-1.097,2.873-1.645,4.886-1.645c2.429,0,4.029,0.859,4.799,2.576
	c0.769,1.719,1.155,4.621,1.155,8.708v24.168H291.8z"/>
</svg>
