<?xml version="1.0" encoding="utf-8"?>
<!-- Generator: Adobe Illustrator 17.0.0, SVG Export Plug-In . SVG Version: 6.00 Build 0)  -->
<!DOCTYPE svg PUBLIC "-//W3C//DTD SVG 1.1//EN" "http://www.w3.org/Graphics/SVG/1.1/DTD/svg11.dtd">
<svg version="1.1" id="Capa_1" xmlns="http://www.w3.org/2000/svg" xmlns:xlink="http://www.w3.org/1999/xlink" x="0px" y="0px"
	 width="320px" height="255.115px" viewBox="90 71.751 320 255.115" enable-background="new 90 71.751 320 255.115"
	 xml:space="preserve">
<path fill="#BF6B04" d="M399.354,308.561c0-3.051,2.401-5.582,5.388-5.582c2.856,0,5.258,2.531,5.258,5.582
	c0,2.986-2.403,5.518-5.258,5.518C401.821,314.08,399.354,311.548,399.354,308.561z"/>
<path fill="#FFFFFF" d="M94.609,306.485v-32.781c0-4.35-2.337-4.869-4.609-5.194v-1.818h20.707c8.309,0,14.152,6.297,14.152,14.346
	c0,9.412-7.206,14.605-15.255,14.605h-5.842v10.84c0,4.285,2.337,4.868,4.609,5.128v1.882H90v-1.882
	C92.337,311.353,94.609,310.769,94.609,306.485z M107.852,292.593c5.063,0,7.595-5.453,7.595-11.554
	c0-5.972-2.337-11.361-7.4-11.361h-4.284v22.915H107.852L107.852,292.593z M124.173,304.926c0-7.075,6.362-11.49,15.839-9.997v-3.57
	c0-4.285-2.531-6.038-5.583-6.038c-2.532,0-5.453,1.364-7.79,5.453l-1.688-0.454c1.298-5.194,5.647-9.932,12.333-9.997
	c6.556-0.129,11.295,4.35,11.295,10.646v15.515c0,1.428,0.065,2.531,0.78,2.531c0.129,0,0.519-0.065,0.973-0.454l0.909,0.974
	c-0.714,2.272-3.051,4.545-6.036,4.545c-2.532,0-4.285-1.623-4.934-3.7c-1.688,2.077-4.154,3.7-7.335,3.7
	C127.939,314.08,124.173,310.185,124.173,304.926z M136.118,309.601c1.623,0,2.986-1.039,3.895-2.533v-9.672
	c-4.804-0.519-7.66,2.077-7.66,6.557C132.353,306.939,133.521,309.601,136.118,309.601z M189.111,306.939v-14.996
	c0-3.96-1.948-5.582-4.349-5.582c-1.363,0-2.726,0.649-4.349,2.401c0.065,0.649,0.13,1.363,0.13,2.142v16.034
	c0,4.089,1.558,4.544,3.375,4.803v1.753h-15.19v-1.753c1.882-0.259,3.375-0.778,3.375-4.803v-14.996c0-3.96-1.882-5.582-4.284-5.582
	c-1.493,0-2.792,0.649-4.285,2.401v18.177c0,4.089,1.623,4.544,3.505,4.803v1.753h-16.034v-1.753c2.077-0.259,4.09-0.778,4.09-4.803
	v-19.734c0-3.7-1.623-4.545-4.09-4.804v-1.753h12.529v4.415c2.012-2.922,4.739-4.804,8.244-4.804c3.571,0,6.621,1.948,7.985,5.842
	c2.142-3.57,5.194-5.842,8.958-5.842c4.804,0,8.828,3.7,8.828,10.646v16.034c0,4.024,1.948,4.544,3.96,4.803v1.753h-15.774v-1.753
	C187.618,311.483,189.111,310.898,189.111,306.939z M203.251,320.311v-33.106c0-3.895-1.948-4.609-4.22-4.804v-1.753h12.853v3.635
	c1.882-2.337,4.414-4.089,7.66-4.089c6.036,0,11.165,5.517,11.165,16.488c0,11.295-6.037,17.267-13.048,17.267
	c-2.012,0-3.96-0.519-5.777-1.493v7.854c0,4.024,2.077,4.609,4.219,4.868v1.688H199.03v-1.688
	C201.303,324.92,203.251,324.141,203.251,320.311z M216.428,310.898c3.051,0,5.128-3.764,5.128-11.749
	c0-8.309-1.558-14.086-5.517-14.086c-1.558,0-2.922,0.974-4.154,2.726v13.956C211.949,307.458,213.313,310.898,216.428,310.898z
	 M231.531,304.926c0-7.075,6.362-11.49,15.839-9.997v-3.57c0-4.285-2.531-6.038-5.583-6.038c-2.532,0-5.453,1.364-7.79,5.453
	l-1.688-0.454c1.298-5.194,5.647-9.932,12.333-9.997c6.557-0.129,11.295,4.35,11.295,10.646v15.515c0,1.428,0.065,2.531,0.78,2.531
	c0.13,0,0.519-0.065,0.974-0.454l0.908,0.974c-0.714,2.272-3.051,4.545-6.036,4.545c-2.532,0-4.285-1.623-4.934-3.7
	c-1.688,2.077-4.154,3.7-7.335,3.7C235.296,314.08,231.531,310.185,231.531,304.926z M243.475,309.601
	c1.623,0,2.986-1.039,3.895-2.533v-9.672c-4.804-0.519-7.66,2.077-7.66,6.557C239.71,306.939,240.879,309.601,243.475,309.601z
	 M259.155,309.405l3.83-13.047l2.077,0.13c0.195,4.544,0.974,7.724,2.272,10.127c1.752,3.245,4.154,4.674,6.816,4.674
	c3.764,0,6.297-2.856,6.426-6.816c0.195-3.701-1.882-6.881-6.036-11.62c-5.063-5.583-7.595-8.439-7.4-13.373
	c0.195-8.179,6.621-13.632,14.801-13.632c4.739,0,9.672,1.818,12.528,3.571l-3.7,13.372l-1.883-0.195
	c-0.065-3.635-0.389-6.881-1.363-9.283c-1.233-3.116-3.441-4.349-5.907-4.349c-3.571,0-5.583,2.207-5.908,5.193
	c-0.324,2.986,1.039,5.258,4.479,8.958c5.258,5.908,9.023,9.608,8.764,16.228c-0.324,8.568-6.621,15.06-15.45,15.06
	C269.087,314.403,263.699,312.716,259.155,309.405z M291.609,294.995c3.375-9.673,10.84-14.996,17.981-14.931
	c5.777,0.065,9.997,3.7,8.439,9.023c-1.753,5.842-8.893,9.023-17.722,9.738c-0.909,6.166,0.78,9.672,4.219,9.802
	c2.597,0.065,6.038-1.688,9.023-6.881l1.428,1.039c-3.764,8.244-9.736,11.555-14.605,11.555
	C292.258,314.339,287.844,305.77,291.609,294.995z M310.045,287.4c0.714-2.272,0.778-4.479-0.78-4.544
	c-2.142,0-5.323,3.959-7.4,9.997c-0.454,1.233-0.778,2.467-1.039,3.57C305.955,295.319,308.746,291.684,310.045,287.4z
	 M317.766,294.995c3.375-9.673,10.84-14.996,17.981-14.931c5.777,0.065,9.997,3.7,8.439,9.023
	c-1.753,5.842-8.893,9.023-17.722,9.738c-0.909,6.166,0.78,9.672,4.219,9.802c2.597,0.065,6.038-1.688,9.023-6.881l1.428,1.039
	c-3.764,8.244-9.736,11.555-14.605,11.555C318.415,314.339,314.001,305.77,317.766,294.995z M336.202,287.4
	c0.714-2.272,0.778-4.479-0.78-4.544c-2.142,0-5.323,3.959-7.4,9.997c-0.454,1.233-0.778,2.467-1.039,3.57
	C332.112,295.319,334.904,291.684,336.202,287.4z M358.204,308.237c-2.856,4.545-5.842,6.102-8.764,6.102
	c-6.101,0-8.244-7.4-5.517-16.554c3.246-11.294,11.62-18.37,18.306-17.656c1.818,0.195,3.052,0.78,3.895,1.623l2.531-7.985
	c1.039-3.83-0.519-4.024-2.403-4.024l0.454-1.883l14.346-2.337l-12.204,38.3c-1.299,4.154-1.104,5.193-0.454,5.193
	c0.844,0,2.727-1.688,5.388-6.362l1.428,1.103c-2.466,5.713-6.945,10.581-11.749,10.581
	C360.216,314.339,358.14,312.262,358.204,308.237z M361.32,296.682l3.83-11.944c-0.454-0.78-1.039-1.039-1.882-1.039
	c-2.922,0-5.647,3.505-8.634,12.398c-2.337,7.011-3.116,12.269-0.845,12.463C355.412,308.691,357.75,306.549,361.32,296.682z
	 M374.56,310.704l3.116-9.283h1.428c0.714,2.922,1.623,5.388,2.921,7.14c1.234,1.818,2.792,2.922,4.479,2.922
	c1.493,0,2.857-0.909,3.052-2.792c0.259-2.921-2.922-6.492-5.583-10.061c-3.116-4.154-4.024-6.362-3.894-8.829
	c0.259-5.777,5.323-9.802,11.879-9.802c3.246,0,6.751,0.909,9.932,2.792l-3.051,9.153h-1.493c-0.39-2.401-0.844-4.219-1.623-5.777
	c-1.169-2.207-2.662-3.376-4.415-3.311c-1.558,0-2.921,0.908-2.986,2.662c-0.065,2.531,2.662,5.517,5.518,9.347
	c2.921,3.83,3.959,6.751,3.57,9.932c-0.584,4.998-4.544,9.542-11.49,9.542C381.829,314.403,377.675,312.846,374.56,310.704z"/>
<path fill="#FFFFFF" d="M238.403,73.826v8.065c-20.84,6.122-35.464,25.29-35.464,47.488c0,5.788,0.988,11.398,2.913,16.743
	l-5.988,5.988c-3.112-7.181-4.709-14.815-4.709-22.732C195.155,102.918,213.117,80.176,238.403,73.826z M295.431,115.593h-19.534
	l5.852,5.663c2.154,2.084,5.677,2.084,7.831,0L295.431,115.593z M309.425,217.481c0,11.318-7.115,23.389-21.146,35.877l-1.808,1.61
	l-2.243-0.909c-6.835-2.772-12.767-7.747-16.703-14.006c-3.551-5.644-5.429-12.161-5.429-18.844c0-4.97,1.009-9.777,2.999-14.289
	l0.14-0.284l17.132-31.61h-3.681c-4.029,0-9.21-2.154-12.051-5.011l-4.211-4.23c-2.902,1.631-6.152,2.568-9.544,2.732
	c2.659,3.585,4.098,7.908,4.098,12.455c0,5.599-2.18,10.863-6.14,14.822l-23.063,23.063c-5.671,5.671-7.336,13.85-5.004,20.999
	c0.973,2.984,2.637,5.789,5.004,8.157c0.214,0.214,0.435,0.422,0.657,0.625c-3.998-0.103-7.976-1.044-11.649-2.824
	c-2.77-1.342-5.368-3.154-7.664-5.45c-4.198-4.199-6.91-9.485-7.889-15.221c-0.6-0.509-1.183-1.046-1.737-1.598
	c-8.477-8.477-10.46-21.021-5.96-31.407c-5.85-10.856-3.916-24.332,4.872-33.119l74.867-74.867
	c3.038-3.038,7.973-3.039,11.013-0.005l-18.726,18.726c-3.973,3.974-4.587,12.501-4.489,15.452l0.003,0.137
	c0,1.466-0.165,14.492-5.865,20.192l-4.407,4.407l6.945,6.993c-3.04,3.04-7.95,3.021-10.989-0.019l-1.46-1.47l-5.263,5.263
	l4.031,4.591c2.273,1.526,4.946,2.348,7.745,2.348c1.656,0,3.261-0.302,4.772-0.852c1.886-0.687,3.62-1.768,5.082-3.229
	c0.458-0.458,0.863-0.948,1.243-1.45l5.533,5.558l3.713,3.73c1.389,1.397,4.564,2.717,6.533,2.717h16.736
	c3.335,0,6.048-2.713,6.048-6.048c0-1.444-0.525-2.845-1.476-3.946l-2.368-2.738l8.227-8.227l5.504,5.505l-3.454,3.454
	c0.883,1.847,1.352,3.879,1.352,5.952c0,7.627-6.205,13.832-13.832,13.832h-4.202l-3.022,5.577
	C298.415,189.313,309.425,202.237,309.425,217.481z M198.687,184.172l0.799-0.803l50.219-50.219
	c2.693-2.693,3.575-10.968,3.585-14.623c-0.015-0.479-0.035-1.742,0.08-3.462l-49.459,49.459
	C198.676,169.758,196.815,177.293,198.687,184.172z M201.619,213.584c1.212-5,3.771-9.588,7.501-13.318l23.846-23.846
	c2.375-2.376,3.683-5.533,3.683-8.892c0-2.819-0.932-5.49-2.632-7.681l-26.369,26.369l-2.65,2.664
	C198.316,195.562,197.194,205.726,201.619,213.584z M249.196,180.972c0-3.519-1.371-6.829-3.86-9.318l-0.173-0.184l-0.933-1.063
	c-0.611,4.346-2.601,8.359-5.759,11.517l-23.846,23.846c-3.885,3.885-6.025,9.051-6.025,14.545c0,5.178,1.901,10.063,5.372,13.86
	c-0.006-0.247-0.018-0.493-0.018-0.741c0-7.586,2.954-14.717,8.318-20.081l23.063-23.063
	C247.825,187.801,249.196,184.492,249.196,180.972z M283.016,216.109c0-3.04-2.926-7.26-7.837-11.485l-3.023,5.578
	c-1.51,3.476-2.276,7.178-2.276,11.007c0,3.665,0.739,7.26,2.13,10.604C278.966,225.501,283.016,219.782,283.016,216.109z
	 M301.641,217.481c0-11.756-8.696-22.324-17.241-29.87l-5.437,10.033c5.303,4.312,11.837,11.118,11.837,18.466
	c0,6.392-4.96,13.957-14.725,22.51c2.433,2.986,5.478,5.469,8.895,7.223C292.973,238.369,301.641,227.875,301.641,217.481z
	 M308.968,135.385c3.04-3.04,3.04-7.969,0-11.008l-0.015-0.007l-12.493,12.493l9.406,9.406l5.504-5.505l-3.901-3.901
	L308.968,135.385z M281.873,100.478c-5.629,0-10.193,4.563-10.193,10.193l0.049,6.794l9.143-9.143
	c0.043-0.021,0.097-0.044,0.143-0.059h15.332l-7.784-7.784C288.563,100.478,281.873,100.478,281.873,100.478z"/>
<path fill="#BF6B04" d="M218.683,130.139h-13.525l7.519-7.519h13.271c0,4.153-3.366,7.519-7.519,7.519 M212.677,109.094v13.525
	l7.519-7.519v-13.271c-4.153,0-7.519,3.366-7.519,7.519 M233.468,115.1c4.153,0,7.519-3.366,7.519-7.519h-13.271l-7.519,7.519
	h13.525 M227.716,94.055v13.525l7.519-7.519V86.79c-4.153,0-7.519,3.366-7.519,7.519 M248.506,100.061
	c4.153,0,7.519-3.366,7.519-7.519h-13.271l-7.519,7.519h13.525 M242.755,79.017v13.525l7.519-7.519V71.751
	c-4.153,0-7.519,3.366-7.519,7.519 M263.545,85.022c4.153,0,7.519-3.366,7.519-7.519h-13.271l-7.519,7.519h13.525"/>
</svg>
