<svg class="logo-ceicaan" xmlns="http://www.w3.org/2000/svg" width="500px" height="114.584px" viewBox="0 0 500 114.584">
	<g class="logo-text">
		<path class="slogan"
			d="M131.409,94.681c0-2.083-0.421-2.984-1.722-2.984c-1.462,0-1.802,1.462-1.802,5.507c0,4.326,0.601,5.106,1.842,5.106c1.042,0,1.802-0.541,1.802-3.624h2.884c0,3.084-0.761,5.747-4.546,5.747c-4.325,0-4.866-3.084-4.866-7.43c0-4.345,0.541-7.43,4.866-7.43c4.125,0,4.426,3.024,4.426,5.106h-2.884L131.409,94.681L131.409,94.681z M137.804,99.187v0.861c0,1.261,0.341,2.503,1.362,2.503c0.921,0,1.301-0.701,1.462-2.023h2.483c-0.1,2.503-1.301,3.905-3.905,3.905c-4.005,0-4.165-3.084-4.165-5.767c0-2.884,0.56-5.567,4.285-5.567c3.224,0,3.945,2.163,3.945,5.467v0.621H137.804z M140.627,97.544c-0.06-1.642-0.261-2.563-1.402-2.563c-1.101,0-1.422,1.142-1.422,2.143v0.42L140.627,97.544L140.627,97.544z M144.124,93.379h2.643v1.262h0.04c0.581-1.061,1.582-1.542,2.744-1.542c1.722,0,2.744,0.941,2.744,3.064v7.991h-2.763v-7.43c0-1.081-0.36-1.502-1.181-1.502c-0.941,0-1.462,0.58-1.462,1.782v7.149h-2.763V93.379H144.124z M154.175,90.295h2.763v3.084h1.602v1.882h-1.602v5.827c0,0.841,0.18,1.182,0.981,1.182c0.22,0,0.44-0.02,0.621-0.04v1.922c-0.601,0.06-1.161,0.12-1.802,0.12c-2.163,0-2.563-0.661-2.563-2.844V95.26h-1.402v-1.882h1.402V90.295z M159.028,93.379h2.643v1.442h0.04c0.561-1.042,1.342-1.722,2.483-1.722c0.16,0,0.341,0.02,0.501,0.04v2.643c-0.28-0.019-0.581-0.04-0.861-0.04c-0.961,0-2.043,0.5-2.043,1.943v6.468h-2.764L159.028,93.379L159.028,93.379z M169.081,93.099c3.324-0.061,4.245,1.922,4.245,5.667c0,3.685-1.081,5.667-4.245,5.667c-3.324,0.06-4.245-1.923-4.245-5.667C164.835,95.081,165.916,93.099,169.081,93.099z M169.081,102.551c1.122,0,1.482-1.101,1.482-3.785s-0.36-3.785-1.482-3.785c-1.362,0-1.482,1.582-1.482,3.785S167.719,102.551,169.081,102.551z M184.141,103.011h-0.04c-0.601,1.002-1.362,1.422-2.443,1.422c-2.263,0-3.304-1.662-3.304-5.667s1.041-5.667,3.304-5.667c1.042,0,1.742,0.42,2.323,1.282h0.04v-4.526h2.763v14.299h-2.643V103.011z M182.559,102.311c1.221,0,1.462-1.202,1.462-3.544c0-2.343-0.24-3.544-1.462-3.544c-1.202,0-1.442,1.201-1.442,3.544C181.117,101.109,181.357,102.311,182.559,102.311z M190.427,99.187v0.861c0,1.261,0.341,2.503,1.362,2.503c0.921,0,1.301-0.701,1.462-2.023h2.483c-0.1,2.503-1.301,3.905-3.905,3.905c-4.005,0-4.165-3.084-4.165-5.767c0-2.884,0.56-5.567,4.285-5.567c3.224,0,3.945,2.163,3.945,5.467v0.621H190.427z M193.251,97.544c-0.06-1.642-0.261-2.563-1.402-2.563c-1.101,0-1.422,1.142-1.422,2.143v0.42L193.251,97.544L193.251,97.544z M209.211,89.854v2.363h-5.107v3.365h4.806v2.363h-4.806v3.845h5.307v2.363h-8.191V89.854H209.211z M212.384,100.628v0.361c0,0.941,0.501,1.562,1.442,1.562c0.841,0,1.402-0.421,1.402-1.282c0-0.701-0.461-1.021-1.002-1.222l-1.942-0.701c-1.522-0.541-2.303-1.481-2.303-3.004c0-1.782,1.122-3.244,3.965-3.244c2.503,0,3.685,1.121,3.685,3.064v0.44h-2.483c0-1.081-0.32-1.622-1.221-1.622c-0.701,0-1.302,0.401-1.302,1.162c0,0.52,0.28,0.961,1.202,1.261l1.662,0.561c1.742,0.58,2.383,1.462,2.383,3.084c0,2.263-1.682,3.384-4.005,3.384c-3.104,0-3.965-1.362-3.965-3.425v-0.381h2.482L212.384,100.628L212.384,100.628z M219.403,90.295h2.763v3.084h1.602v1.882h-1.602v5.827c0,0.841,0.18,1.182,0.981,1.182c0.22,0,0.44-0.02,0.621-0.04v1.922c-0.6,0.06-1.161,0.12-1.802,0.12c-2.163,0-2.563-0.661-2.563-2.844V95.26h-1.402v-1.882h1.402V90.295z M229.746,102.892h-0.04c-0.581,1.061-1.582,1.542-2.744,1.542c-1.722,0-2.744-0.941-2.744-3.064v-7.99h2.763v7.43c0,1.081,0.361,1.502,1.182,1.502c0.941,0,1.462-0.581,1.462-1.782v-7.149h2.763v10.774h-2.643L229.746,102.892L229.746,102.892zM239.148,103.011h-0.04c-0.601,1.002-1.362,1.422-2.443,1.422c-2.263,0-3.304-1.662-3.304-5.667s1.041-5.667,3.304-5.667c1.042,0,1.742,0.42,2.323,1.282h0.04v-4.526h2.763v14.299h-2.643V103.011z M237.567,102.311c1.221,0,1.462-1.202,1.462-3.544c0-2.343-0.24-3.544-1.462-3.544c-1.202,0-1.442,1.201-1.442,3.544C236.125,101.109,236.365,102.311,237.567,102.311zM243.062,89.694h2.763v2.363h-2.763V89.694z M243.062,93.379h2.763v10.774h-2.763V93.379z M251.012,93.099c3.324-0.061,4.245,1.922,4.245,5.667c0,3.685-1.081,5.667-4.245,5.667c-3.324,0.06-4.245-1.923-4.245-5.667C246.767,95.081,247.848,93.099,251.012,93.099z M251.012,102.551c1.121,0,1.482-1.101,1.482-3.785s-0.361-3.785-1.482-3.785c-1.362,0-1.482,1.582-1.482,3.785S249.65,102.551,251.012,102.551z M258.18,100.628v0.361c0,0.941,0.501,1.562,1.442,1.562c0.841,0,1.402-0.421,1.402-1.282c0-0.701-0.461-1.021-1.002-1.222l-1.942-0.701c-1.522-0.541-2.303-1.481-2.303-3.004c0-1.782,1.122-3.244,3.965-3.244c2.503,0,3.685,1.121,3.685,3.064v0.44h-2.483c0-1.081-0.32-1.622-1.221-1.622c-0.701,0-1.302,0.401-1.302,1.162c0,0.52,0.28,0.961,1.202,1.261l1.662,0.561c1.742,0.58,2.383,1.462,2.383,3.084c0,2.263-1.682,3.384-4.005,3.384c-3.104,0-3.965-1.362-3.965-3.425v-0.381h2.482L258.18,100.628L258.18,100.628z M269.074,104.153V89.854h2.884v14.299H269.074z M273.315,93.379h2.643v1.262h0.04c0.581-1.061,1.582-1.542,2.744-1.542c1.722,0,2.744,0.941,2.744,3.064v7.991h-2.763v-7.43c0-1.081-0.36-1.502-1.181-1.502c-0.941,0-1.462,0.58-1.462,1.782v7.149h-2.764L273.315,93.379L273.315,93.379z M283.367,90.295h2.763v3.084h1.602v1.882h-1.602v5.827c0,0.841,0.18,1.182,0.981,1.182c0.22,0,0.44-0.02,0.621-0.04v1.922c-0.6,0.06-1.161,0.12-1.802,0.12c-2.163,0-2.563-0.661-2.563-2.844V95.26h-1.402v-1.882h1.402V90.295z M290.576,99.187v0.861c0,1.261,0.341,2.503,1.362,2.503c0.921,0,1.302-0.701,1.462-2.023h2.483c-0.1,2.503-1.301,3.905-3.905,3.905c-4.005,0-4.165-3.084-4.165-5.767c0-2.884,0.56-5.567,4.285-5.567c3.224,0,3.945,2.163,3.945,5.467v0.621H290.576z M293.4,97.544c-0.06-1.642-0.261-2.563-1.402-2.563c-1.101,0-1.422,1.142-1.422,2.143v0.42L293.4,97.544L293.4,97.544z M296.896,93.379h2.643v1.442h0.04c0.561-1.042,1.342-1.722,2.483-1.722c0.16,0,0.341,0.02,0.501,0.04v2.643c-0.28-0.019-0.581-0.04-0.861-0.04c-0.961,0-2.043,0.5-2.043,1.943v6.468h-2.764L296.896,93.379L296.896,93.379z M308.569,103.011h-0.04c-0.601,1.002-1.362,1.422-2.443,1.422c-2.263,0-3.304-1.662-3.304-5.667s1.041-5.667,3.304-5.667c1.042,0,1.742,0.42,2.323,1.282h0.04v-4.526h2.763v14.299h-2.643V103.011z M306.987,102.311c1.221,0,1.462-1.202,1.462-3.544c0-2.343-0.24-3.544-1.462-3.544c-1.202,0-1.442,1.201-1.442,3.544C305.545,101.109,305.786,102.311,306.987,102.311z M312.483,89.694h2.763v2.363h-2.763V89.694zM312.483,93.379h2.763v10.774h-2.763V93.379z M318.597,100.628v0.361c0,0.941,0.501,1.562,1.442,1.562c0.841,0,1.401-0.421,1.401-1.282c0-0.701-0.461-1.021-1.001-1.222l-1.943-0.701c-1.522-0.541-2.303-1.481-2.303-3.004c0-1.782,1.121-3.244,3.965-3.244c2.503,0,3.685,1.121,3.685,3.064v0.44h-2.483c0-1.081-0.32-1.622-1.221-1.622c-0.701,0-1.302,0.401-1.302,1.162c0,0.52,0.28,0.961,1.202,1.261l1.662,0.561c1.742,0.58,2.383,1.462,2.383,3.084c0,2.263-1.682,3.384-4.005,3.384c-3.104,0-3.965-1.362-3.965-3.425v-0.381h2.483L318.597,100.628L318.597,100.628z M330.09,97.264c0-1.041-0.2-2.163-1.241-2.163c-1.362,0-1.582,1.202-1.582,3.685c0,2.664,0.24,3.765,1.482,3.765c0.921,0,1.341-0.781,1.341-2.524h2.643c0,2.824-1.181,4.406-4.105,4.406c-2.764,0-4.125-1.341-4.125-5.667c0-4.426,1.822-5.667,4.366-5.667c2.543,0,3.864,1.622,3.864,4.165L330.09,97.264L330.09,97.264z M333.625,89.694h2.764v2.363h-2.764V89.694z M333.625,93.379h2.764v10.774h-2.764V93.379z M337.64,93.379h2.643v1.141h0.04c0.6-1.001,1.362-1.422,2.443-1.422c2.263,0,3.304,1.662,3.304,5.667s-1.042,5.667-3.304,5.667c-1.042,0-1.742-0.42-2.323-1.282h-0.04v4.526h-2.764V93.379L337.64,93.379L337.64,93.379zM341.866,102.311c1.202,0,1.442-1.202,1.442-3.544c0-2.343-0.24-3.544-1.442-3.544c-1.222,0-1.462,1.201-1.462,3.544C340.404,101.109,340.644,102.311,341.866,102.311z M347.102,89.854h2.764v14.299h-2.764V89.854z M351.162,89.694h2.764v2.363h-2.764V89.694z M351.162,93.379h2.764v10.774h-2.764V93.379z M355.177,93.379h2.643v1.262h0.04c0.58-1.061,1.582-1.542,2.744-1.542c1.722,0,2.744,0.941,2.744,3.064v7.991h-2.764v-7.43c0-1.081-0.36-1.502-1.181-1.502c-0.941,0-1.462,0.58-1.462,1.782v7.149h-2.764L355.177,93.379L355.177,93.379z M364.503,96.684v-0.261c0-2.483,1.703-3.324,3.785-3.324c3.284,0,3.905,1.362,3.905,3.304v5.667c0,1.001,0.061,1.462,0.34,2.083h-2.643c-0.18-0.34-0.26-0.761-0.34-1.122h-0.04c-0.641,1.122-1.422,1.402-2.744,1.402c-1.922,0-2.603-1.642-2.603-3.084c0-2.023,0.821-2.844,2.723-3.365l1.562-0.42c0.821-0.221,1.101-0.541,1.101-1.261c0-0.821-0.36-1.322-1.282-1.322c-0.841,0-1.282,0.561-1.282,1.402v0.301H364.503z M369.55,98.766c-0.381,0.28-0.841,0.461-1.181,0.541c-1.122,0.24-1.562,0.781-1.562,1.742c0,0.821,0.301,1.502,1.042,1.502s1.702-0.481,1.702-1.662L369.55,98.766L369.55,98.766zM373.475,93.379h2.643v1.442h0.04c0.56-1.042,1.341-1.722,2.483-1.722c0.16,0,0.34,0.02,0.5,0.04v2.643c-0.28-0.019-0.581-0.04-0.861-0.04c-0.961,0-2.042,0.5-2.042,1.943v6.468h-2.764L373.475,93.379L373.475,93.379z M379.661,89.694h2.764v2.363h-2.764V89.694z M379.661,93.379h2.764v10.774h-2.764V93.379z M387.61,93.099c3.325-0.061,4.246,1.922,4.246,5.667c0,3.685-1.081,5.667-4.246,5.667c-3.324,0.06-4.245-1.923-4.245-5.667C383.365,95.081,384.447,93.099,387.61,93.099zM387.61,102.551c1.122,0,1.482-1.101,1.482-3.785s-0.36-3.785-1.482-3.785c-1.362,0-1.481,1.582-1.481,3.785S386.249,102.551,387.61,102.551z M394.778,100.628v0.361c0,0.941,0.5,1.562,1.442,1.562c0.841,0,1.402-0.421,1.402-1.282c0-0.701-0.461-1.021-1.001-1.222l-1.943-0.701c-1.522-0.541-2.303-1.481-2.303-3.004c0-1.782,1.122-3.244,3.965-3.244c2.503,0,3.685,1.121,3.685,3.064v0.44h-2.483c0-1.081-0.321-1.622-1.222-1.622c-0.701,0-1.302,0.401-1.302,1.162c0,0.52,0.28,0.961,1.202,1.261l1.662,0.561c1.742,0.58,2.383,1.462,2.383,3.084c0,2.263-1.682,3.384-4.005,3.384c-3.104,0-3.965-1.362-3.965-3.425v-0.381h2.483L394.778,100.628L394.778,100.628z M410.979,103.011h-0.04c-0.6,1.002-1.362,1.422-2.443,1.422c-2.263,0-3.304-1.662-3.304-5.667s1.041-5.667,3.304-5.667c1.041,0,1.742,0.42,2.323,1.282h0.04v-4.526h2.764v14.299h-2.643v-1.143L410.979,103.011L410.979,103.011z M409.397,102.311c1.221,0,1.462-1.202,1.462-3.544c0-2.343-0.241-3.544-1.462-3.544c-1.202,0-1.442,1.201-1.442,3.544C407.955,101.109,408.195,102.311,409.397,102.311zM417.266,99.187v0.861c0,1.261,0.34,2.503,1.362,2.503c0.921,0,1.302-0.701,1.462-2.023h2.483c-0.1,2.503-1.302,3.905-3.905,3.905c-4.005,0-4.166-3.084-4.166-5.767c0-2.884,0.561-5.567,4.286-5.567c3.224,0,3.944,2.163,3.944,5.467v0.621H417.266zM420.089,97.544c-0.06-1.642-0.26-2.563-1.401-2.563c-1.101,0-1.422,1.142-1.422,2.143v0.42L420.089,97.544L420.089,97.544zM423.65,89.854h2.764v14.299h-2.764V89.854z M438.349,94.681c0-2.083-0.42-2.984-1.722-2.984c-1.462,0-1.802,1.462-1.802,5.507c0,4.326,0.6,5.106,1.842,5.106c1.041,0,1.802-0.541,1.802-3.624h2.884c0,3.084-0.761,5.747-4.546,5.747c-4.326,0-4.866-3.084-4.866-7.43c0-4.345,0.541-7.43,4.866-7.43c4.125,0,4.426,3.024,4.426,5.106h-2.884L438.349,94.681L438.349,94.681z M442.278,96.684v-0.261c0-2.483,1.703-3.324,3.785-3.324c3.284,0,3.905,1.362,3.905,3.304v5.667c0,1.001,0.06,1.462,0.34,2.083h-2.643c-0.18-0.34-0.26-0.761-0.34-1.122h-0.04c-0.641,1.122-1.422,1.402-2.744,1.402c-1.922,0-2.603-1.642-2.603-3.084c0-2.023,0.821-2.844,2.723-3.365l1.562-0.42c0.821-0.221,1.101-0.541,1.101-1.261c0-0.821-0.36-1.322-1.282-1.322c-0.841,0-1.282,0.561-1.282,1.402v0.301H442.278z M447.325,98.766c-0.381,0.28-0.841,0.461-1.181,0.541c-1.122,0.24-1.562,0.781-1.562,1.742c0,0.821,0.301,1.502,1.042,1.502s1.702-0.481,1.702-1.662L447.325,98.766L447.325,98.766z M451.25,93.379h2.643v1.262h0.04c0.58-1.061,1.582-1.542,2.744-1.542c1.722,0,2.744,0.941,2.744,3.064v7.991h-2.764v-7.43c0-1.081-0.36-1.502-1.181-1.502c-0.941,0-1.462,0.58-1.462,1.782v7.149h-2.764L451.25,93.379L451.25,93.379z M460.639,93.379h2.643v1.262h0.04c0.58-1.061,1.582-1.542,2.744-1.542c1.722,0,2.744,0.941,2.744,3.064v7.991h-2.764v-7.43c0-1.081-0.36-1.502-1.181-1.502c-0.941,0-1.462,0.58-1.462,1.782v7.149h-2.764L460.639,93.379L460.639,93.379z M469.965,96.684v-0.261c0-2.483,1.703-3.324,3.785-3.324c3.284,0,3.905,1.362,3.905,3.304v5.667c0,1.001,0.06,1.462,0.34,2.083h-2.643c-0.18-0.34-0.26-0.761-0.34-1.122h-0.04c-0.641,1.122-1.422,1.402-2.744,1.402c-1.923,0-2.603-1.642-2.603-3.084c0-2.023,0.821-2.844,2.723-3.365l1.562-0.42c0.821-0.221,1.101-0.541,1.101-1.261c0-0.821-0.36-1.322-1.282-1.322c-0.841,0-1.282,0.561-1.282,1.402v0.301H469.965z M475.011,98.766c-0.381,0.28-0.841,0.461-1.181,0.541c-1.122,0.24-1.562,0.781-1.562,1.742c0,0.821,0.301,1.502,1.042,1.502s1.702-0.481,1.702-1.662L475.011,98.766L475.011,98.766z M478.937,89.854h2.764v4.526h0.04c0.581-0.861,1.282-1.282,2.323-1.282c2.263,0,3.304,1.662,3.304,5.667s-1.042,5.667-3.304,5.667c-1.081,0-1.842-0.42-2.443-1.422h-0.04v1.142h-2.643V89.854L478.937,89.854L478.937,89.854z M483.163,102.311c1.202,0,1.442-1.202,1.442-3.544c0-2.343-0.24-3.544-1.442-3.544c-1.222,0-1.462,1.201-1.462,3.544C481.701,101.109,481.941,102.311,483.163,102.311z M488.399,89.694h2.764v2.363h-2.764V89.694zM488.399,93.379h2.764v10.774h-2.764V93.379z M494.513,100.628v0.361c0,0.941,0.5,1.562,1.442,1.562c0.841,0,1.402-0.421,1.402-1.282c0-0.701-0.461-1.021-1.001-1.222l-1.943-0.701c-1.522-0.541-2.303-1.481-2.303-3.004c0-1.782,1.122-3.244,3.965-3.244c2.503,0,3.685,1.121,3.685,3.064v0.44h-2.483c0-1.081-0.321-1.622-1.222-1.622c-0.701,0-1.302,0.401-1.302,1.162c0,0.52,0.28,0.961,1.202,1.261l1.662,0.561c1.742,0.58,2.383,1.462,2.383,3.084c0,2.263-1.682,3.384-4.005,3.384c-3.104,0-3.965-1.362-3.965-3.425v-0.381h2.483L494.513,100.628L494.513,100.628z" />
		<path class="text"
			d="M125.001,46.728c0-21.104,16.927-37.592,38.691-37.592c11.102,0,21.544,4.727,28.029,12.531c1.539,1.758,2.308,3.517,2.308,5.496c0,3.627-3.077,6.705-6.925,6.705c-2.088,0-4.067-0.99-5.716-2.858c-4.726-5.496-10.662-8.134-17.697-8.134c-13.63,0-23.413,10.003-23.413,23.962c0,13.85,9.783,23.742,23.413,23.742c6.925,0,12.75-2.638,17.587-8.134c1.758-1.869,3.627-2.857,5.825-2.857c3.847,0,6.815,3.077,6.815,6.705c0,1.759-0.66,3.517-2.308,5.496c-6.375,7.804-16.817,12.531-28.029,12.531C141.818,84.32,125.001,67.832,125.001,46.728zM197.762,75.636V17.819c0-4.177,3.188-7.365,7.364-7.365h35.504c3.957,0,6.815,2.858,6.815,6.705c0,3.738-2.968,6.705-6.815,6.705h-28.029v14.729h19.236c3.737,0,6.485,2.748,6.485,6.375c0,3.517-2.748,6.265-6.485,6.265h-19.236V69.59h29.348c3.957,0,6.815,2.968,6.815,6.705c0,3.847-2.968,6.705-6.815,6.705h-36.823C200.95,83.001,197.762,79.813,197.762,75.636zM252.963,76.735V16.72c0-4.287,3.077-7.584,7.474-7.584c4.287,0,7.365,3.298,7.365,7.584v60.015c0,4.287-3.078,7.585-7.365,7.585C256.041,84.32,252.963,81.022,252.963,76.735z M272.001,46.728c0-21.104,16.927-37.592,38.691-37.592c11.102,0,21.543,4.727,28.029,12.531c1.539,1.758,2.308,3.517,2.308,5.496c0,3.627-3.077,6.705-6.924,6.705c-2.089,0-4.067-0.99-5.716-2.858c-4.727-5.496-10.662-8.134-17.697-8.134c-13.63,0-23.412,10.003-23.412,23.962c0,13.85,9.783,23.742,23.412,23.742c6.925,0,12.751-2.638,17.587-8.134c1.759-1.869,3.627-2.857,5.826-2.857c3.847,0,6.815,3.077,6.815,6.705c0,1.759-0.66,3.517-2.308,5.496c-6.376,7.804-16.818,12.531-28.029,12.531C288.818,84.32,272.001,67.832,272.001,46.728z M393.567,50.685v26.16c0,4.287-3.077,7.365-7.144,7.365c-3.627,0-6.486-2.418-7.144-5.715c-3.957,3.737-9.453,5.826-15.939,5.826c-11.211,0-18.795-6.595-18.795-16.268c0-9.783,7.804-15.828,20.554-15.828h13.63v-2.418c0-6.046-3.627-9.563-10.223-9.563c-3.847,0-7.254,1.319-10.442,4.067c-1.759,1.319-2.968,1.759-4.397,1.759c-3.627,0-6.375-2.748-6.375-6.045c0-2.088,1.099-4.067,3.077-5.936c4.617-4.287,11.761-6.705,19.676-6.705C384.994,27.382,393.567,35.846,393.567,50.685z M378.728,62.666v-0.66h-11.651c-4.947,0-7.585,1.869-7.585,5.496s2.968,5.936,7.804,5.936C373.782,73.438,378.728,68.821,378.728,62.666z M446.784,49.256v27.479c0,4.397-3.077,7.585-7.365,7.585c-4.177,0-7.365-3.298-7.365-7.585V51.234c0-6.265-4.067-10.552-10.112-10.552s-10.332,4.397-10.332,10.552v25.501c0,4.397-3.188,7.585-7.365,7.585c-4.286,0-7.474-3.298-7.474-7.585V34.856c0-4.287,3.188-7.474,7.365-7.474c3.407,0,6.155,2.308,6.924,5.606c3.848-3.517,9.233-5.606,15.279-5.606C438.759,27.382,446.784,35.956,446.784,49.256z M500,49.256v27.479c0,4.397-3.077,7.585-7.365,7.585c-4.177,0-7.365-3.298-7.365-7.585V51.234c0-6.265-4.067-10.552-10.112-10.552s-10.332,4.397-10.332,10.552v25.501c0,4.397-3.188,7.585-7.365,7.585c-4.286,0-7.474-3.298-7.474-7.585V34.856c0-4.287,3.188-7.474,7.365-7.474c3.407,0,6.155,2.308,6.924,5.606c3.848-3.517,9.233-5.606,15.279-5.606C491.976,27.382,500,35.956,500,49.256z" />
	</g>
	<g class="logo-iso">
		<path class="border"
			d="M57.292,0c31.642,0,57.292,25.651,57.292,57.292s-25.651,57.292-57.292,57.292S0,88.934,0,57.292S25.651,0,57.292,0z M109.376,57.292c0-28.719-23.365-52.084-52.084-52.084S5.208,28.573,5.208,57.292s23.365,52.084,52.084,52.084S109.376,86.011,109.376,57.292z" />
		<path class="leaf"
			d="M104.126,55.398c0.025,0.629,0.041,1.259,0.041,1.894c0,25.847-21.028,46.875-46.875,46.875c-1.761,0-3.498-0.101-5.209-0.291c-0.765-0.085-1.525-0.188-2.279-0.31c4.246-1.869,9.863-4.364,12.572-5.057c4.554-1.166,6.148-1.656,11.621-2.657c-4.697-0.193-17.403,0.655-24.218-1.155c-8.148-2.164-11.781-2.618-18.481-9.074c4.129-0.181,17.176-0.343,22.831,0.873c6.432,1.383,12.542,3.588,20.086,6.122h0.128c-9.895-5.621-16.941-12.013-21.648-17.863c-6.72-8.352-10.288-24.328-11.553-27.889c4.133,3.246,17.549,13.801,21.996,19.66c5.058,6.662,8.856,14.003,14.033,22.697c-4.099-12.852-6.101-18.518-6.101-30.871c0-9.6,6.101-25.924,7.572-32.957c2.438,6.93,8.188,26.438,8.188,34.446c0,8.008-1.411,14.555-4.877,29.218c4.243-8.953,5.474-12.007,9.215-18.489c2.734-4.737,8.46-11.214,12.903-16.221C104.094,54.698,104.112,55.047,104.126,55.398z" />
	</g>
</svg>