<svg class="logo-pampaseed" xmlns="http://www.w3.org/2000/svg" width="500px" height="398.618px"
	viewBox="0 0 500 398.618">
	<g class="logo-text">
		<path class="dot"
			d="M483.366,370.016c0-4.767,3.752-8.722,8.418-8.722c4.463,0,8.216,3.955,8.216,8.722c0,4.666-3.754,8.622-8.216,8.622C487.22,378.638,483.366,374.682,483.366,370.016z" />
		<path class="text"
			d="M7.202,366.771V315.55c0-6.797-3.651-7.608-7.202-8.115v-2.84h32.355c12.983,0,22.112,9.839,22.112,22.416c0,14.706-11.259,22.821-23.836,22.821h-9.128v16.938c0,6.695,3.651,7.607,7.201,8.013v2.941H0v-2.941C3.651,374.377,7.202,373.465,7.202,366.771z M27.893,345.065c7.911,0,11.867-8.52,11.867-18.053c0-9.331-3.652-17.751-11.563-17.751h-6.694v35.804L27.893,345.065L27.893,345.065z M53.396,364.336c0-11.055,9.94-17.953,24.749-15.62v-5.578c0-6.695-3.955-9.434-8.723-9.434c-3.956,0-8.52,2.131-12.172,8.52l-2.637-0.709c2.028-8.115,8.824-15.519,19.271-15.621c10.244-0.202,17.649,6.797,17.649,16.634v24.242c0,2.231,0.102,3.955,1.218,3.955c0.202,0,0.811-0.101,1.521-0.71l1.42,1.522c-1.115,3.55-4.767,7.101-9.432,7.101c-3.956,0-6.695-2.536-7.709-5.782c-2.637,3.246-6.491,5.782-11.461,5.782C59.28,378.638,53.396,372.552,53.396,364.336z M72.059,371.64c2.536,0,4.666-1.624,6.086-3.957V352.57c-7.506-0.811-11.968,3.246-11.968,10.245C66.177,367.481,68.002,371.64,72.059,371.64zM154.861,367.481V344.05c0-6.187-3.043-8.722-6.795-8.722c-2.13,0-4.26,1.014-6.796,3.752c0.102,1.014,0.203,2.13,0.203,3.347v25.053c0,6.389,2.434,7.1,5.274,7.505v2.739h-23.734v-2.739c2.941-0.405,5.274-1.216,5.274-7.505v-23.431c0-6.187-2.941-8.722-6.694-8.722c-2.333,0-4.362,1.014-6.695,3.752v28.401c0,6.389,2.536,7.1,5.477,7.505v2.739H95.322v-2.739c3.246-0.405,6.39-1.216,6.39-7.505v-30.834c0-5.781-2.536-7.101-6.39-7.506v-2.739h19.576v6.898c3.144-4.565,7.404-7.506,12.881-7.506c5.579,0,10.346,3.043,12.476,9.128c3.347-5.578,8.115-9.128,13.997-9.128c7.506,0,13.794,5.781,13.794,16.634v25.053c0,6.288,3.043,7.1,6.187,7.505v2.739h-24.647v-2.739C152.528,374.581,154.861,373.667,154.861,367.481z M176.954,388.375v-51.728c0-6.086-3.043-7.202-6.593-7.506v-2.739h20.083v5.68c2.941-3.651,6.897-6.389,11.968-6.389c9.432,0,17.445,8.621,17.445,25.762c0,17.649-9.433,26.98-20.387,26.98c-3.144,0-6.187-0.811-9.027-2.333v12.272c0,6.288,3.246,7.202,6.592,7.607v2.637H170.36v-2.637C173.911,395.576,176.954,394.359,176.954,388.375z M197.544,373.667c4.767,0,8.013-5.882,8.013-18.358c0-12.983-2.434-22.01-8.621-22.01c-2.434,0-4.565,1.522-6.491,4.259v21.807C190.545,368.292,192.676,373.667,197.544,373.667zM221.142,364.336c0-11.055,9.94-17.953,24.749-15.62v-5.578c0-6.695-3.955-9.434-8.723-9.434c-3.956,0-8.52,2.131-12.172,8.52l-2.637-0.709c2.028-8.115,8.824-15.519,19.271-15.621c10.245-0.202,17.649,6.797,17.649,16.634v24.242c0,2.231,0.101,3.955,1.218,3.955c0.203,0,0.811-0.101,1.522-0.71l1.419,1.522c-1.115,3.55-4.767,7.101-9.432,7.101c-3.956,0-6.695-2.536-7.709-5.782c-2.637,3.246-6.491,5.782-11.461,5.782C227.025,378.638,221.142,372.552,221.142,364.336zM239.805,371.64c2.536,0,4.666-1.624,6.086-3.957V352.57c-7.506-0.811-11.968,3.246-11.968,10.245C233.922,367.481,235.748,371.64,239.805,371.64z M264.304,371.334l5.984-20.386l3.246,0.203c0.304,7.1,1.522,12.069,3.55,15.823c2.738,5.071,6.491,7.303,10.65,7.303c5.882,0,9.839-4.463,10.041-10.65c0.305-5.782-2.941-10.752-9.432-18.156c-7.911-8.723-11.867-13.186-11.563-20.895c0.305-12.78,10.346-21.3,23.127-21.3c7.404,0,15.113,2.84,19.575,5.579l-5.781,20.894l-2.942-0.304c-0.101-5.68-0.608-10.751-2.13-14.504c-1.927-4.869-5.376-6.795-9.229-6.795c-5.579,0-8.723,3.448-9.231,8.114c-0.507,4.666,1.623,8.216,6.999,13.997c8.216,9.231,14.098,15.012,13.693,25.357c-0.507,13.388-10.346,23.531-24.14,23.531C279.823,379.144,271.405,376.507,264.304,371.334z M315.014,348.818c5.274-15.114,16.938-23.431,28.095-23.329c9.027,0.101,15.62,5.781,13.186,14.098c-2.739,9.128-13.896,14.098-27.69,15.215c-1.421,9.635,1.218,15.113,6.592,15.316c4.058,0.101,9.434-2.637,14.099-10.752l2.231,1.624c-5.882,12.881-15.213,18.054-22.821,18.054C316.028,379.043,309.131,365.655,315.014,348.818z M343.82,336.951c1.115-3.55,1.216-6.999-1.218-7.1c-3.347,0-8.317,6.186-11.563,15.62c-0.709,1.927-1.216,3.854-1.623,5.578C337.429,349.325,341.791,343.645,343.82,336.951zM355.885,348.818c5.274-15.114,16.938-23.431,28.095-23.329c9.027,0.101,15.62,5.781,13.186,14.098c-2.739,9.128-13.896,14.098-27.69,15.215c-1.421,9.635,1.218,15.113,6.592,15.316c4.058,0.101,9.434-2.637,14.099-10.752l2.231,1.624c-5.882,12.881-15.213,18.054-22.821,18.054C356.899,379.043,350.002,365.655,355.885,348.818z M384.691,336.951c1.115-3.55,1.216-6.999-1.218-7.1c-3.347,0-8.317,6.186-11.563,15.62c-0.709,1.927-1.216,3.854-1.623,5.578C378.3,349.325,382.662,343.645,384.691,336.951z M419.069,369.509c-4.463,7.101-9.128,9.535-13.693,9.535c-9.533,0-12.881-11.562-8.621-25.865c5.072-17.647,18.156-28.703,28.603-27.588c2.84,0.304,4.768,1.218,6.086,2.536l3.955-12.476c1.623-5.984-0.811-6.288-3.754-6.288l0.71-2.942l22.416-3.651l-19.069,59.843c-2.029,6.491-1.725,8.114-0.71,8.114c1.318,0,4.261-2.637,8.419-9.94l2.231,1.723c-3.853,8.926-10.852,16.533-18.358,16.533C422.213,379.043,418.968,375.798,419.069,369.509z M423.938,351.455l5.984-18.663c-0.71-1.218-1.623-1.623-2.941-1.623c-4.565,0-8.824,5.477-13.49,19.372c-3.651,10.955-4.869,19.17-1.32,19.474C414.707,370.219,418.359,366.872,423.938,351.455zM444.625,373.363l4.868-14.504h2.232c1.115,4.565,2.536,8.419,4.564,11.157c1.928,2.84,4.362,4.565,6.999,4.565c2.333,0,4.464-1.421,4.768-4.362c0.405-4.564-4.565-10.143-8.723-15.721c-4.869-6.491-6.288-9.941-6.085-13.795c0.405-9.026,8.317-15.316,18.561-15.316c5.072,0,10.549,1.421,15.519,4.362l-4.767,14.301h-2.333c-0.609-3.752-1.318-6.592-2.536-9.026c-1.826-3.449-4.159-5.275-6.898-5.173c-2.434,0-4.564,1.419-4.666,4.159c-0.101,3.955,4.159,8.621,8.622,14.605c4.564,5.984,6.186,10.549,5.578,15.519c-0.912,7.81-7.1,14.909-17.953,14.909C455.983,379.144,449.492,376.71,444.625,373.363z" />
	</g>
	<g class="logo-iso">
		<path class="girl"
			d="M231.879,3.242v12.601c-32.562,9.566-55.412,39.515-55.412,74.2c0,9.043,1.543,17.809,4.552,26.161l-9.357,9.357c-4.863-11.221-7.358-23.149-7.358-35.519C164.305,48.698,192.37,13.164,231.879,3.242z M320.986,68.503h-30.522l9.143,8.849c3.365,3.257,8.871,3.257,12.236,0L320.986,68.503z M342.852,227.702c0,17.684-11.117,36.545-33.04,56.058l-2.825,2.515l-3.504-1.421c-10.679-4.332-19.948-12.104-26.099-21.884c-5.549-8.819-8.483-19.001-8.483-29.443c0-7.765,1.576-15.276,4.686-22.326l0.219-0.444l26.768-49.391h-5.751c-6.295,0-14.391-3.366-18.83-7.829l-6.579-6.61c-4.534,2.548-9.612,4.012-14.912,4.269c4.155,5.601,6.403,12.357,6.403,19.461c0,8.749-3.407,16.973-9.593,23.16l-36.036,36.036c-8.861,8.861-11.462,21.64-7.819,32.811c1.52,4.662,4.121,9.046,7.819,12.745c0.335,0.335,0.679,0.659,1.026,0.977c-6.247-0.161-12.463-1.631-18.202-4.412c-4.328-2.097-8.387-4.928-11.975-8.516c-6.56-6.561-10.797-14.82-12.327-23.783c-0.938-0.796-1.849-1.634-2.714-2.497c-13.245-13.246-16.343-32.846-9.312-49.073c-9.141-16.963-6.118-38.018,7.613-51.749l116.98-116.979c4.747-4.747,12.458-4.749,17.208-0.008l-29.259,29.26c-6.208,6.21-7.168,19.533-7.014,24.144l0.004,0.214c0,2.291-0.258,22.643-9.164,31.55l-6.886,6.886l10.852,10.926c-4.75,4.75-12.422,4.721-17.171-0.029l-2.281-2.297l-8.224,8.224l6.298,7.173c3.552,2.385,7.728,3.668,12.102,3.668c2.587,0,5.095-0.472,7.456-1.332c2.947-1.073,5.657-2.763,7.941-5.046c0.716-0.716,1.348-1.481,1.943-2.265l8.645,8.685l5.801,5.828c2.171,2.183,7.131,4.245,10.208,4.245h26.15c5.211,0,9.45-4.239,9.45-9.45c0-2.256-0.82-4.446-2.307-6.166l-3.7-4.278l12.854-12.854l8.6,8.601l-5.397,5.397c1.38,2.886,2.113,6.061,2.113,9.3c0,11.917-9.696,21.613-21.613,21.613h-6.565l-4.722,8.714C325.648,183.69,342.852,203.884,342.852,227.702z M169.824,175.657l1.248-1.255l78.467-78.467c4.208-4.208,5.586-17.138,5.602-22.849c-0.024-0.748-0.055-2.722,0.125-5.409l-77.28,77.28C169.806,153.136,166.898,164.909,169.824,175.657z M174.405,221.613c1.894-7.812,5.892-14.981,11.72-20.809l37.259-37.26c3.711-3.712,5.755-8.645,5.755-13.894c0-4.404-1.456-8.578-4.113-12.002l-41.202,41.202l-4.141,4.163C169.243,193.455,167.49,209.335,174.405,221.613z M248.743,170.657c0-5.499-2.142-10.671-6.031-14.56l-0.27-0.287l-1.458-1.661c-0.955,6.79-4.064,13.061-8.999,17.995l-37.259,37.26c-6.071,6.071-9.414,14.142-9.414,22.727c0,8.09,2.971,15.723,8.394,21.657c-0.01-0.386-0.028-0.77-0.028-1.158c0-11.853,4.616-22.996,12.997-31.377l36.036-36.036C246.601,181.328,248.743,176.157,248.743,170.657z M301.588,225.559c0-4.75-4.572-11.344-12.245-17.945l-4.723,8.715c-2.36,5.431-3.556,11.215-3.556,17.198c0,5.727,1.154,11.344,3.328,16.569C295.26,240.234,301.588,231.298,301.588,225.559zM330.689,227.702c0-18.368-13.588-34.882-26.939-46.672l-8.495,15.676c8.286,6.738,18.496,17.372,18.496,28.853c0,9.987-7.75,21.808-23.008,35.172c3.802,4.666,8.559,8.545,13.899,11.286C317.146,260.341,330.689,243.944,330.689,227.702zM342.138,99.428c4.75-4.75,4.75-12.451,0-17.2l-0.024-0.011l-19.52,19.52l14.697,14.697l8.6-8.601l-6.095-6.096L342.138,99.428zM299.802,44.885c-8.796,0-15.926,7.13-15.926,15.926l0.076,10.615l14.286-14.286c0.067-0.033,0.152-0.069,0.223-0.092h23.957l-12.163-12.163C310.255,44.885,299.802,44.885,299.802,44.885z" />
		<path class="crown"
			d="M201.067,91.231h-21.133l11.749-11.749h20.736c0,6.489-5.26,11.749-11.749,11.749M191.683,58.348v21.133l11.749-11.749V46.996c-6.489,0-11.749,5.26-11.749,11.749 M224.168,67.732c6.489,0,11.749-5.26,11.749-11.749h-20.736l-11.749,11.749h21.133 M215.181,34.85v21.133l11.749-11.749V23.498c-6.489,0-11.749,5.26-11.749,11.749 M247.666,44.234c6.489,0,11.749-5.26,11.749-11.749h-20.736L226.93,44.234h21.133M238.679,11.352v21.133l11.749-11.749V0c-6.489,0-11.749,5.26-11.749,11.749 M271.164,20.736c6.489,0,11.749-5.26,11.749-11.749h-20.736l-11.749,11.749h21.133" />
	</g>
</svg>